<?xml version="1.0" encoding="UTF-8" standalone="no"?>
<!-- Created with Inkscape (http://www.inkscape.org/) -->

<svg
   version="1.1"
   id="svg1"
   width="520.68018"
   height="578.91052"
   viewBox="0 0 520.68018 578.91052"
   sodipodi:docname="logo3bibliotecando.jpg"
   inkscape:version="0.0"
   xmlns:inkscape="http://www.inkscape.org/namespaces/inkscape"
   xmlns:sodipodi="http://sodipodi.sourceforge.net/DTD/sodipodi-0.dtd"
   xmlns="http://www.w3.org/2000/svg"
   xmlns:svg="http://www.w3.org/2000/svg">
  <defs
     id="defs1" />
  <sodipodi:namedview
     id="namedview1"
     pagecolor="#505050"
     bordercolor="#eeeeee"
     borderopacity="1"
     inkscape:showpageshadow="0"
     inkscape:pageopacity="0"
     inkscape:pagecheckerboard="0"
     inkscape:deskcolor="#505050"
     showgrid="false"
     inkscape:zoom="0.70710678"
     inkscape:cx="802.56619"
     inkscape:cy="1260.7714"
     inkscape:window-width="1366"
     inkscape:window-height="740"
     inkscape:window-x="0"
     inkscape:window-y="0"
     inkscape:window-maximized="1"
     inkscape:current-layer="g1" />
  <g
     inkscape:groupmode="layer"
     inkscape:label="Image"
     id="g1"
     transform="translate(-558.88379,-1072)">
    <g
       id="g26"
       transform="translate(308,850)"
       style="fill:#2c004f;fill-opacity:1">
      <path
         style="fill:#2c004f;fill-opacity:1"
         d="m 485.5,800.33368 c -17.60582,-2.15173 -41.46755,-8.19413 -60.87027,-15.41389 -8.72865,-3.24793 -17.34324,-6.81568 -19.14354,-7.92832 -8.21479,-5.07702 -8.5427,-18.5733 -0.56574,-23.28541 4.80867,-2.84055 10.9689,-2.13439 24.26341,2.78135 14.2555,5.27107 29.89031,9.80996 43.53589,12.63876 12.94714,2.684 46.65441,3.68548 63.84247,1.89683 11.6291,-1.21017 12.21186,-1.1789 16.2294,0.87069 4.99,2.54571 7.20838,6.40913 7.20838,12.55377 0,3.7826 -0.58211,5.1911 -3.46347,8.38043 -3.94224,4.36359 -7.39023,5.62241 -19.5103,7.12298 -7.78972,0.96444 -44.53366,1.23743 -51.52623,0.38281 z m 98.4844,-14.19638 c -4.55591,-2.43551 -7.5693,-9.20598 -6.53981,-14.69362 1.04098,-5.54891 5.64772,-9.44378 17.05541,-14.41988 12.25714,-5.34664 17.97377,-6.13018 22.82959,-3.12912 3.6717,2.26924 6.68478,7.37066 6.64845,11.25645 -0.0121,1.29188 -0.84295,4.15611 -1.84638,6.36495 -1.52293,3.35242 -2.96525,4.57458 -8.72804,7.3958 -7.45573,3.65001 -21.96005,9.03638 -24.41922,9.06839 -0.83358,0.0109 -3.08358,-0.81848 -5,-1.84297 z M 365.07108,755.24845 c -6.85195,-3.4939 -9.71768,-11.37181 -6.73419,-18.51232 2.31274,-5.53517 6.82613,-7.93247 14.05803,-7.46698 5.26575,0.33894 6.24657,0.76315 9.18956,3.97451 4.48629,4.89538 5.30279,9.75037 2.58173,15.35114 -3.57837,7.36534 -11.96703,10.28835 -19.09513,6.65365 z M 642.5,756.05464 c -5.55719,-2.27451 -8.0477,-10.16104 -5.04342,-15.97067 2.02874,-3.92315 7.51273,-6.49991 12.02991,-5.65248 6.60753,1.23958 11.2369,9.9235 8.28353,15.53849 -2.81183,5.34591 -10.03894,8.2257 -15.27002,6.08466 z M 485.80765,746.02622 C 473.99316,743.53475 472.06735,742.84961 452,733.99844 415.50177,717.90005 397.29359,712.99249 374.11901,713.00755 355.17757,713.01987 340.7008,716.16575 305,728.0275 c -22.61411,7.51364 -31.03637,9.10569 -37.27638,7.0463 -6.25785,-2.06528 -11.71068,-6.80386 -14.27507,-12.40522 l -2.37731,-5.19273 -0.14484,-177.48792 C 250.79101,374.07534 250.89402,362.22176 252.5059,358.23365 255.78083,350.13086 265.61307,344 275.33285,344 c 5.71097,0 12.82232,2.72849 23.36895,8.96622 5.61099,3.31858 10.44849,6.03378 10.75,6.03378 0.30151,0 0.5482,-9.68945 0.5482,-21.53212 0,-23.71573 0.46454,-26.15665 5.83862,-30.67864 6.93958,-5.83926 14.99079,-6.05398 35.16138,-0.93771 64.80428,16.4376 119.49307,38.68844 151.3873,61.59389 l 7.88731,5.66441 5.61269,-4.05663 c 33.45054,-24.17669 91.83899,-48.45905 154.00639,-64.04756 22.45517,-5.63065 30.00961,-5.15497 37.52755,2.36296 5.76285,5.76286 6.57876,9.67875 6.57876,31.57422 0,9.93145 0.23394,18.05718 0.51987,18.05718 0.28593,0 2.19843,-1.05361 4.25,-2.34135 5.92754,-3.72063 16.31034,-8.40708 21.52438,-9.71539 11.8084,-2.96297 24.59346,3.39204 29.28537,14.55674 1.53865,3.66131 1.70253,14.3098 1.93547,125.76218 0.13997,66.96921 -0.0312,121.91716 -0.3803,122.10656 -0.34913,0.1894 -6.59729,-3.91563 -13.88479,-9.1223 L 744,588.77977 V 481.88988 c 0,-58.78943 -0.3375,-106.888 -0.75,-106.88569 -0.4125,0.002 -3,1.1456 -5.75,2.54067 l -5,2.5365 -0.5,98.47092 -0.5,98.47092 -10.5,-7.81219 c -5.775,-4.29671 -14.79215,-10.98872 -20.03812,-14.87115 -5.24596,-3.88242 -10.30846,-7.8293 -11.25,-8.77083 C 688.11749,543.97463 688,536.55305 688,437.42857 688,378.5089 687.61524,331 687.13807,331 c -1.66675,0 -29.8293,8.17042 -47.13807,13.67554 -28.45204,9.04927 -57.0408,20.31475 -77.32086,30.4685 C 554.53225,379.223 528.07967,394.69961 524.75,397.33525 523.09814,398.6428 523,406.6358 523,539.86024 523,617.48711 523.19723,681 523.43828,681 c 0.24106,0 1.92856,-1.37582 3.75,-3.05738 7.3171,-6.75516 32.17992,-23.45935 40.1641,-26.98442 8.02667,-3.54384 16.06877,-0.85112 19.66886,6.58568 2.7047,5.58716 2.48576,9.27119 -0.86232,14.51034 -2.38168,3.72691 -5.17097,5.79105 -17.25,12.7654 -7.92491,4.57579 -15.68632,9.34951 -17.24759,10.60827 l -2.83867,2.28864 2.70897,5.39174 c 1.48994,2.96545 2.81004,5.50944 2.93357,5.6533 0.12354,0.14386 4.9069,-1.82331 10.6297,-4.3715 29.25676,-13.02715 36.14388,-13.49014 49.59544,-3.33411 5.00461,3.77851 7.21728,6.7204 8.71747,11.59041 0.61184,1.98618 -0.21833,2.42325 -11.12331,5.85633 -6.48148,2.04048 -16.7345,5.73851 -22.7845,8.21784 -6.05,2.47933 -16.4,6.71991 -23,9.42351 -14.53992,5.95607 -22.20532,8.28986 -33.88099,10.31531 -12.42642,2.15569 -35.54974,1.94173 -46.81136,-0.43314 z m 43.00372,-28.50425 c 0.96789,-0.9679 -4.07935,-5.47328 -8.56322,-7.64389 -5.60446,-2.71307 -13.49358,-2.7478 -19.51128,-0.0859 -4.03446,1.78463 -8.73687,5.66497 -8.73687,7.2095 0,0.34352 2.12596,0.73463 4.72436,0.86913 2.59839,0.1345 4.96089,0.49883 5.25,0.80962 0.63927,0.68721 26.08994,-0.41142 26.83701,-1.15848 z M 469.47782,702.8604 c 2.60511,-4.98219 2.63129,-5.19548 0.8548,-6.96378 C 468.08081,693.65519 449.50441,683.2804 442,680.07306 c -42.05647,-17.97472 -84.56308,-18.4778 -129.98148,-1.53837 -5.21482,1.94494 -12.31781,5.09529 -15.78443,7.00078 -3.46661,1.90549 -6.39995,3.46454 -6.51851,3.46456 -0.11857,2e-5 -0.10024,-69.05934 0.0407,-153.46523 l 0.25632,-153.46526 -5.52573,-3.53477 C 281.44774,376.59065 278.7449,375 278.48058,375 278.21626,375 278,449.52314 278,540.60699 c 0,157.34019 0.0874,165.56952 1.75,164.85645 0.9625,-0.41279 10.87825,-3.8661 22.03499,-7.67401 21.52771,-7.34762 41.55219,-12.0332 59.21293,-13.85538 27.22935,-2.80943 62.03718,4.12142 93.00208,18.51836 6.325,2.94077 11.79034,5.39202 12.1452,5.44722 0.35485,0.0552 1.85453,-2.21245 3.33262,-5.03923 z M 497,539.62608 V 398.25215 l -7.75,-4.99285 C 471.02385,381.51731 447.14478,369.43334 424.5,360.49268 401.89421,351.5674 352.76704,336.11053 338.49607,333.43328 L 335,332.77742 V 486.90776 641.0381 l 2.25,-0.46729 c 7.13455,-1.48173 17.45891,-2.77651 27.95525,-3.50585 43.337,-3.01129 93.11543,12.03602 125.04102,37.79813 3.16044,2.5503 5.74794,4.97441 5.75,5.38691 0.002,0.4125 0.22873,0.75 0.50373,0.75 0.275,0 0.5,-63.61827 0.5,-141.37392 z m 196,205.30374 c -13.97615,-1.2879 -25.51855,-6.80386 -32.28419,-15.42821 C 657.18705,725.0034 645.3284,704.26731 635.8379,686 c -1.28584,-2.475 -2.44593,-4.68303 -2.57797,-4.90674 -0.13204,-0.2237 -1.30771,0.74527 -2.61261,2.15327 -9.34626,10.08479 -24.96355,7.76661 -30.26754,-4.49281 -1.71985,-3.9752 -1.86109,-8.93529 -2.15698,-75.75372 l -0.31662,-71.5 2.29691,-4.49588 c 2.91319,-5.70218 8.39324,-8.96469 15.09657,-8.98767 6.00861,-0.0206 7.87737,0.95822 22.96256,12.02722 6.73078,4.93882 16.06278,11.77253 20.73778,15.18602 7.75419,5.66178 25.38674,18.68887 54.5,40.26512 6.05,4.48373 16.02291,11.83966 22.16202,16.34651 6.13912,4.50684 12.5212,9.74226 14.1824,11.63427 7.5577,8.60774 3.7303,23.27431 -7.2085,27.62293 -1.72476,0.68566 -3.29751,1.36808 -3.49501,1.51649 -0.43361,0.32584 1.2715,2.7987 14.41601,20.90702 5.59809,7.71212 11.42947,16.48712 12.95862,19.5 8.18062,16.11827 1.23703,36.96759 -16.1662,48.54178 -14.34646,9.54126 -38.2922,15.12212 -57.34934,13.36601 z m 22.5,-32.44074 c 10.03195,-2.11559 19.35327,-6.9105 20.98688,-10.7957 0.71427,-1.69875 1.05711,-3.78721 0.76187,-4.64101 -0.29524,-0.8538 -3.93485,-6.27737 -8.08804,-12.05237 -27.47052,-38.19777 -33.48048,-46.76745 -34.31042,-48.92372 -1.34316,-3.48964 -0.0711,-7.88546 2.83228,-9.78786 1.37983,-0.9041 5.41097,-1.90135 8.9581,-2.21612 L 713.08999,623.5 695.795,610.74515 c -9.51225,-7.01517 -21.78501,-16.01517 -27.2728,-20 -5.48778,-3.98483 -16.51278,-12.1 -24.5,-18.03372 L 629.5,561.92287 l -0.30531,43.78856 c -0.16792,24.08372 -0.013,47.95741 0.34438,53.05267 l 0.64969,9.2641 5.15562,-4.2327 c 2.83559,-2.32798 7.57979,-6.40754 10.54266,-9.06569 3.53226,-3.16898 6.11454,-4.72916 7.5,-4.5314 1.68297,0.24022 4.96195,6.04995 16.11296,28.54918 7.7,15.53617 15.02403,29.26117 16.27561,30.5 1.25159,1.23882 3.72659,2.78067 5.5,3.42633 4.52515,1.6475 15.94891,1.56033 24.22439,-0.18484 z M 504.18976,313.64714 c -1.27064,-0.7051 -3.18017,-2.60165 -4.24342,-4.21457 -1.82584,-2.76977 -1.93353,-5.05792 -1.93975,-41.21775 -0.006,-33.88712 0.18278,-38.57421 1.64191,-40.80112 4.88577,-7.45663 17.15024,-7.10301 21.71596,0.62613 1.43606,2.43106 1.63554,7.36025 1.63554,40.41412 0,41.31072 -0.09,41.98987 -5.96727,45.02912 -3.54933,1.83543 -9.68969,1.91388 -12.84297,0.16407 z m -45.7935,-10.07651 c -3.95914,-1.72345 -5.49496,-4.01234 -14.13809,-21.07063 -3.90146,-7.7 -7.80283,-15.35 -8.6697,-17 -0.86688,-1.65 -1.57892,-5.19687 -1.58231,-7.88192 -0.005,-4.28059 0.42166,-5.28541 3.46704,-8.15758 5.8072,-5.47689 14.77478,-5.40793 19.69915,0.15148 0.91979,1.03841 5.75729,10.11407 10.75,20.16813 6.37322,12.83408 9.07765,19.35318 9.07765,21.88197 0,5.07193 -3.25374,9.82217 -8.03944,11.73702 -4.79727,1.91949 -6.48587,1.94691 -10.5643,0.17153 z m 94.01893,0.008 C 547.51574,301.44537 545,297.4819 545,291.89618 c 0,-4.04961 1.35237,-7.55736 8.33344,-21.61514 10.55042,-21.24536 10.34841,-20.93921 15.44944,-23.41369 7.61108,-3.69209 16.0644,0.13807 18.25436,8.27097 1.00395,3.72836 0.79814,4.53342 -3.11303,12.17699 -2.30343,4.50158 -5.22267,9.98469 -6.48719,12.18469 -1.26453,2.2 -3.22333,6.36182 -4.35289,9.24849 -2.97267,7.59684 -6.77475,12.87682 -10.56906,14.67733 -3.99164,1.89416 -6.02957,1.92498 -10.09988,0.15277 z"
         id="path32" />
      <path
         style="fill:#2c004f;fill-opacity:1"
         d="m 480,799.47673 c -22.39424,-3.50289 -52.9917,-12.51602 -69.62952,-20.51085 -7.34686,-3.53032 -8.29328,-4.31566 -9.83039,-8.15728 -3.82118,-9.55009 0.91583,-17.77828 10.68778,-18.56464 4.41813,-0.35554 7.21594,0.30126 17.27213,4.05467 15.54528,5.80218 30.3937,10.1831 43.5,12.83436 13.2267,2.67561 50.00587,3.74556 65.54371,1.90674 8.8719,-1.04994 10.53223,-0.99315 14.2308,0.48672 5.92808,2.37195 8.62093,7.00633 7.9753,13.72548 -1.18373,12.31931 -12.83241,15.84413 -51.72358,15.65121 C 497.243,800.84966 484.69407,800.21097 480,799.47673 Z m 105.09917,-13.03102 c -4.15843,-1.80481 -5.73382,-3.75945 -7.17817,-8.9062 -1.35554,-4.83029 -0.0272,-10.15614 3.31218,-13.27947 3.50245,-3.27588 22.67913,-11.5452 27.94744,-12.05142 5.7887,-0.55622 10.83474,2.19663 13.21292,7.20827 1.97121,4.15403 2.01968,6.65837 0.21257,10.98341 -1.79937,4.30648 -6.28311,7.57056 -15.60611,11.36094 -5.78848,2.35338 -17.98385,6.45541 -18.4315,6.19962 -0.0377,-0.0215 -1.59887,-0.70335 -3.46933,-1.51515 z M 365.07108,755.24845 c -10.01547,-5.10702 -10.60117,-19.27707 -1.00942,-24.42118 6.5557,-3.51586 15.58287,-1.46805 19.28584,4.37499 4.45858,7.03532 1.83646,16.078 -5.72333,19.73763 -5.19845,2.51653 -8.0839,2.58745 -12.55309,0.30856 z m 277.14149,0.24494 c -3.41351,-1.4831 -6.21603,-6.31791 -6.20883,-10.71127 0.0119,-7.26103 8.95025,-12.60509 15.69967,-9.38651 9.34831,4.4579 9.1037,16.21091 -0.42129,20.24241 -3.95579,1.6743 -4.91842,1.65895 -9.06955,-0.14463 z m -153.87843,-8.97411 c -10.02309,-1.81865 -18.56828,-4.78193 -35.29521,-12.23956 -35.79677,-15.95985 -55.28733,-21.26268 -78.47215,-21.35009 -19.70661,-0.0743 -33.24459,2.86736 -70.56678,15.33335 -18.99831,6.34562 -22.38127,7.18446 -29.07384,7.20912 -6.71045,0.0247 -8.13239,-0.3171 -12.47356,-2.99854 -3.04116,-1.87844 -6.04772,-4.88322 -7.92616,-7.92146 L 251.5,719.65707 251.22681,541.07854 c -0.30495,-199.3397 -0.8676,-183.55658 6.79027,-190.47501 4.97972,-4.49887 13.38425,-7.07145 20.3911,-6.24159 5.69644,0.67466 13.71027,4.34379 24.09182,11.03043 l 7,4.50863 0.5,-22.7005 c 0.52876,-24.00643 0.9309,-26.11303 5.83142,-30.54794 2.83511,-2.56574 8.87134,-4.55664 13.97301,-4.60867 12.67432,-0.12924 77.66732,19.20976 112.08256,33.35073 22.55701,9.26852 44.02655,20.59992 58.51142,30.88172 6.7242,4.77305 10.29412,6.73718 11.13238,6.12493 20.98323,-15.32581 44.62148,-28.09224 73.69237,-39.79941 35.59781,-14.33564 93.61023,-31.5646 106.37762,-31.5928 8.43377,-0.0186 15.92132,4.28824 19.64323,11.29887 2.04809,3.85781 2.25385,5.81099 2.58041,24.49552 0.19517,11.1669 0.65202,20.15138 1.01522,19.96551 22.67105,-11.60217 24.40222,-12.27045 31.61024,-12.20239 8.25406,0.0779 13.49937,2.33372 18.39693,7.91174 C 771.41324,359.95706 771,351.00965 771,485.70615 v 122.46191 l -3.75,-2.91298 c -2.0625,-1.60214 -8.1375,-5.94852 -13.5,-9.65862 L 744,588.85083 V 481.41102 373.97121 L 738,377 l -6,3.02879 v 98.56901 98.56901 l -2.75,-2.10607 c -1.5125,-1.15835 -9.725,-7.15005 -18.25,-13.31489 -8.525,-6.16485 -17.1875,-12.73201 -19.25,-14.59369 L 688,543.76728 V 437.38364 C 688,364.0376 687.6753,331 686.95444,331 c -2.9035,0 -46.0452,12.96723 -66.45662,19.97507 -33.3948,11.46541 -76.167,32.07715 -95.09729,45.82698 L 523.06285,398.5 523.03142,540.48978 523,682.47956 l 2.60768,-2.81226 c 6.34806,-6.8461 37.95477,-27.93385 44.51569,-29.70052 10.17157,-2.73892 20.45835,6.37464 18.462,16.35638 -1.20853,6.04266 -4.8775,9.9457 -14.19043,15.09573 C 565.10377,686.55689 549,696.6636 549,697.35673 549,698.33188 554.20053,709 554.6759,709 c 0.29111,0 5.65403,-2.26863 11.91762,-5.0414 28.42266,-12.58217 34.39203,-13.01209 47.4615,-3.41821 4.73003,3.47216 8.05725,7.77734 9.37204,12.12671 0.58607,1.93877 0.0449,2.34402 -5.13598,3.84626 -10.80351,3.13253 -24.74077,8.25076 -40.79108,14.97984 -20.53645,8.60988 -33.74158,12.99488 -45,14.94304 -10.89793,1.88579 -33.99114,1.92921 -44.16586,0.083 z m 40.36797,-28.88806 c 0.9597,-0.9597 -2.74083,-4.5696 -7.60869,-7.42236 -7.9537,-4.66118 -20.39891,-2.90337 -27.13491,3.83263 -2.9621,2.9621 -2.41238,3.80683 2.79149,4.28948 6.51328,0.6041 31.18865,0.0637 31.95211,-0.69975 z m -59.2876,-14.25717 c 1.42202,-2.54428 2.57992,-5.13178 2.57311,-5.75 -0.0146,-1.32253 -3.31438,-3.53382 -15.65186,-10.4887 C 432.65183,673.78425 403.03482,666 375.92137,666 c -24.59494,0 -55.90353,7.46189 -78.14641,18.62491 -3.69877,1.8563 -6.96127,3.37509 -7.25,3.37509 C 290.23623,688 290,619.14441 290,534.98758 V 381.97516 l -5.45196,-3.48758 C 281.54946,376.56941 278.84946,375 278.54804,375 278.24662,375 278,449.52314 278,540.60699 c 0,157.31919 0.0876,165.57219 1.75,164.91157 7.88531,-3.13348 27.99777,-9.9017 38.25,-12.87186 26.669,-7.72622 47.20558,-10.33632 68,-8.64248 24.08379,1.96179 46.45685,8.22248 71,19.86804 4.675,2.21826 8.79903,4.05447 9.16451,4.08047 0.36547,0.026 1.82797,-2.03441 3.25,-4.57868 z M 497,539.50589 v -141.4941 l -8.25,-5.30528 C 480.97028,387.70365 475.50896,384.50539 465,378.79803 438.92012,364.63418 390.82244,346.8706 347.87793,335.54214 L 335,332.14503 V 486.59157 641.0381 l 2.25,-0.50368 c 8.39894,-1.88018 27.41484,-3.65121 39.25,-3.65551 34.95254,-0.0127 72.94925,10.79133 100.62721,28.61248 7.0665,4.54995 18.00777,13.18113 18.70612,14.75661 0.18334,0.4136 0.52084,0.752 0.75,0.752 C 496.8125,681 497,617.32765 497,539.50589 Z m 187.5,204.08886 c -11.21554,-2.77059 -19.28893,-7.7898 -24.87834,-15.46683 C 656.21789,723.45285 634,683.27887 634,681.7993 c 0,-1.30364 -1.83641,-0.90996 -2.70031,0.57887 -1.35747,2.33944 -8.04921,6.35226 -11.75108,7.04673 -4.55247,0.85405 -10.68593,-0.82813 -14.39307,-3.94748 -6.0711,-5.10849 -5.91781,-3.08737 -6.2945,-82.99133 -0.33783,-71.65907 -0.30746,-73.04973 1.67031,-76.48609 2.47835,-4.3061 9.38994,-8 14.96865,-8 5.57209,0 9.6859,2.38951 30.12814,17.5 9.67288,7.15 19.76744,14.575 22.43234,16.5 7.64066,5.51925 59.30506,43.70431 70.36883,52.00946 10.61129,7.9655 14.11671,12.05371 15.17573,17.69875 1.36764,7.29014 -4.16221,16.91739 -11.17355,19.45272 -1.88732,0.68247 -3.43149,1.53774 -3.43149,1.9006 0,0.36287 5.40683,8.03497 12.01517,17.04912 6.60834,9.01414 13.47084,19.30769 15.25,22.87454 2.90449,5.82293 3.23008,7.35472 3.18829,15 -0.0385,7.03663 -0.50718,9.51497 -2.69993,14.27602 -7.19869,15.63029 -23.24345,26.24762 -47.11698,31.17883 -8.96897,1.8526 -27.92552,1.93606 -35.13655,0.15471 z m 32.74415,-31.52931 c 10.81874,-2.76697 17.45669,-6.37025 19.45501,-10.56076 1.60199,-3.3594 1.57587,-3.52108 -1.28193,-7.93559 -1.60448,-2.47847 -10.92643,-15.54242 -20.71545,-29.03099 -9.78902,-13.48857 -18.45756,-26.1027 -19.26342,-28.03139 -1.27262,-3.0458 -1.27828,-3.95407 -0.0431,-6.91035 1.59076,-3.80722 3.41033,-4.64725 11.93045,-5.50789 L 713.15148,623.5 699.32574,613.24829 C 691.72158,607.60985 672.9,593.77948 657.5,582.51413 l -28,-20.48245 -0.28641,50.23416 c -0.15753,27.62879 -0.0173,51.73572 0.31159,53.57096 l 0.59801,3.3368 5.18841,-4.84891 c 10.3453,-9.66839 16.60815,-14.48684 18.39241,-14.15059 1.24022,0.23373 6.16187,9.15579 15.9046,28.83219 7.75974,15.67154 15.18474,29.44893 16.5,30.61643 1.31526,1.16749 3.74139,2.59447 5.39139,3.17105 4.94903,1.72941 17.52566,1.3736 25.74415,-0.72833 z M 502.23531,311.57774 498.5,308.15547 498.21604,269.59374 c -0.24494,-33.26407 -0.0709,-38.97375 1.26693,-41.56081 1.95382,-3.77828 6.24495,-6.03293 11.48206,-6.03293 3.23306,0 4.82832,0.69996 7.79966,3.42226 l 3.73531,3.42227 0.28396,38.56173 c 0.24494,33.26407 0.0709,38.97375 -1.26693,41.56081 -1.95382,3.77828 -6.24495,6.03293 -11.48206,6.03293 -3.23306,0 -4.82832,-0.69996 -7.79966,-3.42226 z m -43.93672,-8.20188 c -3.95531,-1.95035 -3.96144,-1.95983 -15.14864,-23.464 C 435.80352,265.79046 434,261.48454 434,258.06623 c 0,-5.60195 2.82829,-9.45334 8.54555,-11.63678 5.86252,-2.23891 11.29342,-0.82878 14.83844,3.85282 4.13202,5.45678 19.61601,37.70704 19.61601,40.85648 0,5.12896 -3.4526,10.42506 -7.97617,12.23504 -5.01598,2.00699 -6.6586,2.00731 -10.72524,0.002 z m 93.9711,0.18922 c -4.24095,-1.90624 -7.26124,-6.98637 -7.26595,-12.22133 -0.003,-3.22777 1.97995,-8.14244 8.87603,-22 9.25414,-18.59604 11.57302,-21.75283 17.15495,-23.35371 6.98248,-2.00255 13.53533,1.81384 15.92443,9.27441 1.13981,3.55935 0.97567,4.21313 -3.01282,12 -2.32008,4.52955 -4.98256,9.36055 -5.91664,10.73555 -0.93408,1.375 -2.48457,4.525 -3.44554,7 -2.46921,6.35949 -7.04792,14.14761 -9.8838,16.81178 -3.06799,2.88223 -8.2827,3.61774 -12.43066,1.7533 z"
         id="path31" />
      <path
         style="fill:#2c004f;fill-opacity:1"
         d="m 486.5,800.30041 c -14.38637,-1.30695 -39.72873,-7.59077 -59.37387,-14.72217 -17.61669,-6.39505 -22.24711,-8.64529 -25.00532,-12.15179 C 395.51014,765.02235 401.39844,752 411.80917,752 c 1.93237,0 12.77832,3.13035 24.10212,6.95633 11.32379,3.82598 26.36155,8.11947 33.41725,9.54108 22.46603,4.52656 49.79712,5.43755 70.30007,2.34322 8.53078,-1.28748 12.63907,-0.25822 16.95644,4.24815 2.55922,2.67124 2.91495,3.77613 2.91495,9.05372 0,5.64523 -0.2234,6.21591 -3.66965,9.37416 -4.22859,3.87522 -7.82945,5.01603 -20.33035,6.44102 -8.35467,0.95235 -39.86359,1.17274 -49,0.34273 z m 100.1193,-13.40217 c -6.15347,-1.69859 -10.51994,-9.25855 -9.01646,-15.61077 1.43838,-6.07714 4.76387,-8.78372 17.51799,-14.25766 10.34029,-4.43795 12.91455,-5.17321 16.64147,-4.75314 8.68798,0.97927 14.24391,10.04084 10.94217,17.8464 -2.01781,4.77025 -4.31906,6.50554 -14.37871,10.8425 -12.19852,5.25906 -18.20224,6.89996 -21.70646,5.93267 z M 367.5,756.31107 c -8.72429,-2.37561 -12.94885,-14.11782 -7.8687,-21.87112 3.42632,-5.22922 13.25597,-7.02556 19.06437,-3.48395 4.44373,2.70952 6.59917,6.41396 6.70991,11.532 0.18958,8.76236 -9.37475,16.14601 -17.90558,13.82307 z M 642.42096,755.62 C 639.22083,754.18605 636,748.88362 636,745.04921 c 0,-3.28177 2.53114,-7.46032 5.47265,-9.03457 6.28322,-3.36268 13.80143,-0.51721 16.35407,6.18962 3.29168,8.64858 -6.67506,17.32787 -15.40576,13.41574 z m -151.50157,-8.63049 c -9.00808,-1.52459 -19.91413,-5.01203 -31.57374,-10.09638 -41.39594,-18.05133 -54.12654,-22.02062 -76.35768,-23.80767 -20.75083,-1.66804 -37.65818,1.50619 -77.26841,14.50658 -12.72974,4.17801 -25.46273,7.83559 -28.29552,8.12796 -7.12786,0.73566 -14.25878,-1.79003 -19.3071,-6.83835 -7.7888,-7.7888 -7.1984,8.57802 -6.89156,-191.04563 L 251.5,359.17203 l 3.03716,-4.32122 c 3.93212,-5.59457 8.25031,-8.43603 15.17556,-9.98583 4.79682,-1.07348 6.50144,-1.01123 12.03233,0.43941 5.90779,1.54949 24.28792,11.3219 25.75299,13.69243 2.01112,3.25406 2.50378,-0.79563 2.52392,-20.74682 0.0191,-18.95735 0.25781,-22.26359 1.85877,-25.75 2.30459,-5.01867 4.56918,-7.04181 10.04464,-8.97367 5.99127,-2.11384 10.41621,-1.92208 22.71743,0.98452 43.47205,10.2718 92.30004,27.39858 124.80129,43.77498 14.10136,7.10525 38.45636,22.12605 40.04599,24.69812 0.32069,0.51889 3.25374,-1.08763 6.51789,-3.57004 19.74839,-15.01877 50.17449,-30.21127 88.3045,-44.09262 C 635.04877,314.13165 682.7708,301 692.69905,301 c 6.38219,0 14.24259,4.60192 17.79608,10.41883 l 3.00487,4.91882 0.33747,20.83699 0.33746,20.83699 2.81775,-2.00642 c 5.03704,-3.58669 19.37111,-9.98153 25.00732,-11.15648 10.67413,-2.22519 21.43338,3.15278 26.56422,13.27801 L 771,362.93351 v 122.68823 c 0,116.7758 -0.0843,122.61277 -1.75,121.12235 -2.37274,-2.1231 -15.89066,-11.75483 -20.38632,-14.52558 -1.99998,-1.23261 -3.90634,-3.24853 -4.23635,-4.47981 -0.33001,-1.23129 -0.60617,-49.83268 -0.61368,-108.0031 L 744,373.97121 738,377 l -6,3.02879 v 98.48768 98.48768 l -9.75,-7.30926 c -5.3625,-4.0201 -13.35,-9.83006 -17.75,-12.91102 -4.4,-3.08097 -9.8,-7.16621 -12,-9.07831 l -4,-3.47655 -0.26339,-106.6145 C 688.03487,355.95182 687.69448,331 686.78219,331 682.79426,331 635.53871,345.44832 614,353.25305 580.49823,365.39271 539.9538,385.3159 525.69802,396.64392 L 523,398.78784 v 141.81429 141.81429 l 4.25,-4.06555 c 5.05852,-4.83899 20.79571,-15.97856 33.05804,-23.40015 7.67712,-4.64646 9.45656,-5.32115 13.85895,-5.25473 11.09861,0.16743 17.6965,10.75737 12.88924,20.68786 -2.36249,4.88026 -3.79772,5.96028 -21.76084,16.37534 -5.93747,3.44255 -12.09023,7.29342 -13.67282,8.55747 l -2.87743,2.29829 2.81756,5.9971 2.81757,5.99711 12.55986,-5.72003 c 21.2311,-9.6691 30.50916,-11.80357 37.76282,-8.68759 6.96151,2.99049 14.49752,9.26056 16.95206,14.10436 1.3637,2.69113 2.3367,4.99391 2.16222,5.11728 -0.17448,0.12337 -6.61723,2.27952 -14.31723,4.79143 -7.7,2.51191 -22.20149,7.99612 -32.22554,12.18712 -22.81839,9.54025 -33.23395,12.9996 -45.20068,15.01261 -9.88346,1.66258 -32.83421,1.98333 -41.15439,0.57517 z m 37.73601,-29.31158 c 1.03286,-1.03285 -3.63064,-5.59608 -8.1554,-7.98006 -7.96885,-4.19858 -22.63502,-1.62629 -27.10374,4.7537 -2.08799,2.98103 -1.78473,3.39296 2.85374,3.87628 6.27895,0.65426 31.60924,0.14624 32.4054,-0.64992 z M 469.41451,703.37405 C 470.83653,700.82977 472,698.23506 472,697.60802 c 0,-3.12644 -27.04697,-17.3446 -43.5,-22.86725 -19.56199,-6.56621 -29.30143,-8.09435 -52,-8.15895 -17.19669,-0.0489 -21.6119,0.27191 -31.5,2.28904 -14.43068,2.9438 -35.64508,9.92279 -46.02108,15.13974 -4.36399,2.19417 -8.16951,3.9894 -8.45672,3.9894 -0.28721,0 -0.53496,-68.9625 -0.55056,-153.25 l -0.0284,-153.25 -5.37193,-3.25 C 281.61678,376.4625 278.92955,375 278.59971,375 278.26987,375 278,449.52314 278,540.60699 c 0,157.31705 0.0876,165.57246 1.75,164.91719 12.52473,-4.93689 46.17649,-15.2551 57.36604,-17.58942 35.95222,-7.5002 67.66945,-4.87262 102.17862,8.46487 6.20989,2.40007 14.4215,5.96987 18.24802,7.93288 3.82653,1.96302 7.48135,3.59126 8.12183,3.61831 0.64047,0.0271 2.32797,-2.0325 3.75,-4.57677 z M 497,539.53726 V 398.07452 l -5.83458,-3.96219 C 459.2045,372.40809 406.56727,350.89759 347.75,335.50482 L 335,332.16808 V 486.6635 641.15891 l 2.75,-0.55409 c 41.99685,-8.46188 87.67921,-2.08298 126.19095,17.62079 11.73307,6.00299 24.66828,14.66953 29.63945,19.85831 C 495.11698,679.68776 496.51499,681 496.68709,681 496.85919,681 497,617.34177 497,539.53726 Z m 187.7209,203.896 c -11.87415,-2.87677 -21.46849,-9.31654 -27.03939,-18.14896 -1.31278,-2.08137 -7.25094,-12.7843 -13.1959,-23.7843 -5.94496,-11 -10.96799,-20.19424 -11.1623,-20.43165 -0.1943,-0.2374 -1.85534,1.02422 -3.6912,2.8036 -10.10931,9.79833 -25.94609,5.98046 -29.7158,-7.16378 -0.47922,-1.67091 -0.90342,-35.62208 -0.94268,-75.44703 -0.0808,-81.93534 -0.6328,-76.37224 8.03934,-81.01666 3.56967,-1.91176 5.56994,-2.31812 9.78384,-1.98761 6.04598,0.4742 5.55541,0.16205 38.70319,24.62701 11.55,8.52457 26.21941,19.35052 32.59868,24.05767 6.37928,4.70715 21.40971,15.75845 33.40098,24.55845 30.38386,22.29774 30.44476,22.35634 32.03399,30.82769 1.41497,7.54242 -5.07768,17.5347 -12.44484,19.1528 l -3.05975,0.67204 3.94755,5.67373 c 2.17116,3.12056 8.02621,11.27757 13.01122,18.12669 12.59497,17.30476 14.51663,21.48712 14.49486,31.54705 -0.0243,11.25558 -2.85774,17.98447 -11.23171,26.67357 -12.76638,13.24682 -34.33966,20.92625 -58.25098,20.73556 -5.225,-0.0417 -12.1006,-0.70581 -15.2791,-1.47587 z m 34.90236,-31.99702 c 10.46692,-3.03319 14.85736,-5.53118 16.99834,-9.6714 1.23717,-2.39242 1.33465,-3.56544 0.45646,-5.49287 -0.61417,-1.34794 -8.66827,-12.87306 -17.89802,-25.61139 -26.33804,-36.35012 -26.01168,-35.77742 -23.62429,-41.45534 1.5102,-3.59172 4.27892,-4.65555 12.19425,-4.68542 2.8875,-0.0109 5.25,-0.25899 5.25,-0.55131 0,-0.8008 -11.21651,-9.23221 -46.5,-34.95388 -17.6,-12.83041 -32.929,-24.1575 -34.06445,-25.17132 C 631.3001,562.82949 630.0626,562 629.68555,562 c -1.07142,0 -0.8276,105.79417 0.24535,106.45729 0.512,0.31644 1.18157,0.16975 1.48794,-0.32597 0.30637,-0.49572 5.04841,-4.81285 10.53787,-9.59362 11.78209,-10.26102 12.57927,-10.31934 16.88704,-1.23544 9.20186,19.40419 24.36098,49.51967 25.91974,51.49279 4.53127,5.73582 20.10822,6.91602 34.85977,2.64119 z M 503.61488,312.9117 C 498.03241,308.52054 498,308.2608 498,267.91769 c 0,-35.85334 0.0739,-37.30125 2.06965,-40.53038 3.6475,-5.90179 14.11832,-7.09345 18.64546,-2.122 4.21356,4.6271 4.28489,5.3463 4.28489,43.20107 0,28.81592 -0.29279,37.2986 -1.37697,39.89342 -2.55795,6.12203 -12.74009,8.69576 -18.00815,4.5519 z m -43.0732,-8.63172 c -1.07707,-0.27878 -2.93777,-1.14862 -4.13487,-1.933 -3.10195,-2.03248 -21.59033,-37.83927 -22.16701,-42.93127 -1.16928,-10.32461 9.15948,-17.03472 18.7602,-12.18762 4.33659,2.18941 4.85406,2.9715 14.25,21.53734 6.36897,12.58472 9.7487,20.38709 9.74626,22.5 -0.009,7.96726 -8.87195,14.97714 -16.45458,13.01455 z m 94,-0.009 C 548.81894,302.8169 545,297.65469 545,291.3727 c 0,-5.26318 16.56311,-38.98585 20.96905,-42.6932 8.13999,-6.84935 20.9559,-1.32609 21.24237,9.15481 0.0707,2.58833 -5.65927,15.11103 -9.22762,20.16655 -0.97085,1.37547 -2.8624,5.20047 -4.20343,8.5 -5.78737,14.2394 -11.68647,19.68807 -19.23869,17.7697 z"
         id="path30" />
      <path
         style="fill:#2c004f;fill-opacity:1"
         d="m 487.5,800.37491 c -17.04314,-1.81225 -43.07185,-8.34466 -62.89138,-15.78382 -17.09015,-6.4147 -19.81681,-7.76901 -22.49404,-11.17256 C 395.4346,764.92631 401.49271,752 412.1527,752 c 2.12132,0 8.69227,1.76794 14.60212,3.92876 22.00779,8.0467 33.10855,11.14909 50.24518,14.04233 16.53648,2.79191 35.84885,3.51151 52,1.93756 21.87814,-2.13204 24.78312,-1.59237 29.044,5.39568 5.74761,9.42636 -1.06514,19.18556 -15.18932,21.75856 -5.63087,1.02577 -48.49261,2.04168 -55.35468,1.31202 z m 94.51735,-16.20371 c -3.29425,-3.29425 -5.17564,-9.12973 -4.32107,-13.40258 0.97991,-4.89956 6.09833,-8.92431 17.36119,-13.65157 13.21842,-5.54805 17.26211,-6.089 21.94253,-2.93542 4.65741,3.13808 7.24763,8.27813 6.45956,12.81837 -1.28202,7.38599 -4.32394,9.8045 -20.1342,16.00785 -12.54964,4.92401 -17.28861,5.18275 -21.30801,1.16335 z M 367.78864,756.29597 c -3.86915,-0.60128 -8.38829,-5.22769 -9.84022,-10.0738 -4.58062,-15.28873 18.29386,-24.25705 25.6394,-10.05235 5.51916,10.67288 -3.41279,22.05105 -15.79918,20.12615 z m 276.59911,-0.009 c -3.39437,-0.62634 -7.22215,-5.39897 -7.94235,-9.90284 -0.57695,-3.60805 -0.30636,-4.50267 2.19833,-7.26805 3.56931,-3.94081 7.8069,-5.22762 12.2999,-3.73506 8.27485,2.74889 9.98873,14.49978 2.77119,19.00022 -2.66667,1.66278 -6.45209,2.43623 -9.32707,1.90573 z M 489.4496,746.60023 C 479.30345,744.6686 472.71202,742.60336 462.5,738.15633 435.47206,726.38647 429.67532,724.0012 421,721.07975 c -21.09383,-7.10344 -40.13827,-9.85803 -56.52768,-8.17616 -17.40272,1.78586 -31.94986,5.47715 -63.87863,16.20902 -20.2352,6.80143 -25.45698,7.74323 -32.32027,5.82927 -6.13496,-1.71085 -14.30487,-9.62667 -16.0573,-15.5579 -0.93484,-3.164 -1.21386,-44.91287 -1.20635,-180.5 l 0.01,-176.38398 2.41661,-5.1904 c 4.73411,-10.16792 16.03777,-14.96068 28.20374,-11.95843 5.77951,1.42624 24.38686,11.26507 25.88303,13.68592 1.98409,3.21032 2.47897,-0.90611 2.49904,-20.78709 0.0244,-24.11806 0.80314,-27.88273 6.61151,-31.96013 7.50775,-5.27033 13.46381,-5.30501 33.79072,-0.19673 60.32693,15.16054 113.92299,36.37011 146.33473,57.90904 6.70139,4.45336 12.45113,8.52867 12.77719,9.05625 0.32606,0.52758 3.15133,-0.9802 6.27837,-3.35061 16.28746,-12.34655 42.96167,-26.4561 70.68552,-37.38972 40.00074,-15.77534 90.56383,-30.56513 105.0769,-30.73518 6.20226,-0.0727 7.6786,0.28896 11.94524,2.926 3.45571,2.13584 5.60965,4.44799 7.4231,7.96834 2.45269,4.76128 2.5677,5.77031 2.87865,25.25656 l 0.32388,20.29714 2.67612,-1.88997 c 5.04883,-3.56569 17.24464,-9.19993 23.23713,-10.73513 11.84233,-3.03387 22.82507,1.87286 28.19299,12.5957 l 2.75401,5.50135 L 770.75401,485.3265 770.5,607.1501 759,598.99192 c -6.325,-4.48699 -12.175,-8.53904 -13,-9.00454 -1.31613,-0.74262 -1.53332,-14.03258 -1.77182,-108.42025 l -0.27181,-107.57389 -5.97819,3.01777 L 732,380.02879 v 98.39981 98.3998 l -11.17568,-8.1642 C 690.49459,546.50733 689.57524,545.72588 688.81796,541.45917 688.43147,539.28162 688.08933,491.0375 688.05763,434.25 688.00891,346.95734 687.78586,331 686.61446,331 c -2.52792,0 -35.8185,9.77297 -55.61446,16.32648 -25.46221,8.42935 -52.58511,19.37684 -70.83681,28.59153 -6.81661,3.44149 -30.15286,17.27515 -34.24322,20.29928 L 523,398.37612 V 540.39101 682.4059 l 3.75,-3.56773 c 7.24095,-6.88898 28.57296,-21.39611 40.17367,-27.32066 8.90551,-4.54809 19.73155,0.50065 21.5204,10.03607 1.59794,8.51775 -2.73244,13.42243 -20.95247,23.73118 -6.59538,3.73162 -13.50827,8.03923 -15.36198,9.57248 l -3.37037,2.78773 2.81232,5.98594 2.81231,5.98594 14.55806,-6.43048 C 586.23648,695.54715 591.00708,694 597,694.0869 c 5.9232,0.0859 9.7442,1.56789 16.53473,6.4131 3.79078,2.70481 6.41446,5.57023 8.10286,8.84943 1.37328,2.66719 2.35412,4.96659 2.17964,5.10977 -0.17448,0.14318 -5.71723,1.94334 -12.31723,4.00035 -6.6,2.05702 -18.525,6.44479 -26.5,9.75061 -41.1955,17.0765 -47.55093,18.78456 -72,19.35044 -11.14572,0.25797 -18.78786,-0.0537 -23.5504,-0.96037 z m 39.19724,-28.91374 c 2.27024,-2.27023 -11.27187,-10.65787 -17.23791,-10.67672 C 504.19027,706.98696 492,712.94158 492,716.49053 c 0,0.85784 1.43359,1.56134 3.75,1.84022 5.60415,0.67471 32.09671,0.15587 32.89684,-0.64426 z M 469.88211,703.0266 c 1.31015,-2.69263 2.15208,-5.48765 1.87094,-6.21115 -1.33528,-3.43626 -28.95407,-17.55357 -44.25305,-22.61989 -21.21787,-7.02639 -47.22741,-9.73539 -69.83224,-7.27333 -19.20389,2.09165 -42.53215,8.94841 -59.47749,17.48195 C 294.26308,686.38188 290.81369,688 290.52496,688 290.23623,688 290,619.03013 290,534.73363 V 381.46726 l -5.40627,-3.23363 C 281.62028,376.45513 278.92028,375 278.59373,375 278.26718,375 278,449.52748 278,540.61663 c 0,157.27542 0.0881,165.58861 1.75,165.06024 0.9625,-0.30601 10.3,-3.49566 20.75,-7.08811 31.46176,-10.81575 50.97552,-14.68732 73.84582,-14.65116 20.42203,0.0323 37.29559,2.93322 57.65418,9.91203 8.59457,2.94617 23.9886,9.43614 29.5,12.4369 4.60053,2.50483 5.80509,2.03635 8.38211,-3.25993 z M 497.65838,668.25 c -0.35765,-7.0125 -0.65209,-70.67073 -0.65432,-141.46274 L 497,398.07452 491.23027,394.15638 C 458.855,372.17075 402.76414,349.29429 346.32861,335.05875 c -4.49427,-1.13366 -8.88177,-2.33379 -9.75,-2.66696 C 335.14466,331.84153 335,345.95378 335,486.39301 c 0,85.03385 0.1125,154.60492 0.25,154.60238 0.1375,-0.003 6.325,-0.90749 13.75,-2.01101 36.87228,-5.48008 76.14669,0.56936 110.5145,17.02256 11.25528,5.38834 29.30897,17.04415 33.92259,21.90107 1.6154,1.7006 3.37235,3.09199 3.90432,3.09199 0.60641,0 0.72465,-4.75644 0.31697,-12.75 z M 689.5,744.35148 c -18.33937,-3.81938 -27.49153,-10.62051 -36.2478,-26.9364 -9.5187,-17.73651 -19.30485,-35.62346 -19.85136,-36.28393 -0.16787,-0.20287 -2.15097,1.21105 -4.40689,3.14203 -9.43254,8.07391 -22.5649,6.17043 -27.62066,-4.00349 -1.77193,-3.56572 -1.88785,-7.73632 -2.14231,-77.07848 -0.29851,-81.34685 -0.55488,-77.97381 6.24568,-82.17679 4.126,-2.55001 11.44287,-3.58672 15.45152,-2.1893 2.9069,1.01335 12.24375,7.61106 44.07182,31.14257 7.425,5.48954 22.05,16.27835 32.5,23.97515 55.78669,41.08888 54.51841,40.01128 55.92676,47.51842 1.46395,7.80354 -2.7523,15.39165 -10.56287,19.01035 l -4.79385,2.22102 13.00754,17.90368 c 16.73375,23.03249 18.42777,26.42913 18.40511,36.90369 -0.0225,10.37922 -2.78792,17.48024 -9.80329,25.17235 -9.40142,10.30832 -23.45404,17.31087 -41.67592,20.7675 -7.49497,1.42178 -23.58322,1.93632 -28.50348,0.91163 z m 25.5,-31.5407 c 12.81806,-2.42111 23,-8.62915 23,-14.02335 0,-1.13252 -2.79033,-5.93549 -6.20073,-10.67328 C 695.76433,638.05382 695,636.90778 695,632.93745 695,626.95999 697.76278,625 706.18856,625 709.93485,625 713,624.59551 713,624.10112 c 0,-0.9809 -13.07731,-10.94626 -39.5,-30.10035 -9.35,-6.77791 -22.91089,-16.75087 -30.13532,-22.16212 C 636.14026,566.42739 629.95276,562 629.61468,562 629.27661,562 629,586.075 629,615.5 c 0,29.425 0.24942,53.5 0.55427,53.5 0.30484,0 5.47848,-4.275 11.49696,-9.5 6.01849,-5.225 11.37633,-9.5 11.90631,-9.5 1.8755,0 3.44697,2.79629 17.42199,31.00087 15.61287,31.51013 15.60344,31.49812 25.90763,32.97253 5.52009,0.78987 9.77552,0.52548 18.71284,-1.16262 z M 505.03002,313.72069 c -1.3585,-0.68741 -3.496,-2.77232 -4.75,-4.63314 C 498.00637,305.71368 498,305.59848 498,267.83743 v -37.8668 l 3.2506,-3.54702 c 5.8589,-6.39317 15.29354,-5.49931 19.78988,1.87494 1.84377,3.02387 1.95143,5.25374 1.94104,40.20145 -0.008,27.59445 -0.32871,37.62788 -1.26083,39.46998 -2.90308,5.73725 -11.12135,8.56882 -16.69067,5.75071 z m -44.56758,-9.79478 c -1.67066,-0.48015 -4.20128,-2.1224 -5.6236,-3.64945 -4.15416,-4.46006 -20.84117,-38.2173 -20.83992,-42.15843 0.003,-9.46431 10.26342,-15.29497 19.08507,-10.84542 4.23657,2.13688 4.8122,3.01347 14.16601,21.57223 6.37849,12.65548 9.75,20.47119 9.75,22.60212 0,7.87741 -8.97754,14.6517 -16.53756,12.47895 z m 94.07924,0.36359 C 548.86577,302.79284 545,297.65233 545,291.60147 c 0,-4.30322 16.64805,-38.98275 20.41077,-42.51764 3.32892,-3.12736 10.99051,-3.96192 15.4067,-1.67822 3.65677,1.89099 6.18253,6.1976 6.18253,10.54167 0,2.64664 -5.30648,14.01226 -9.60544,20.5733 -0.78212,1.19366 -2.46371,4.82735 -3.73688,8.07486 -5.361,13.67448 -11.79048,19.6257 -19.116,17.69406 z"
         id="path29" />
      <path
         style="fill:#2c004f;fill-opacity:1"
         d="m 485,799.96073 c -14.20624,-1.74277 -32.54476,-6.14776 -50.5,-12.13031 -30.03933,-10.00888 -34.88462,-13.18774 -34.88462,-22.88689 0,-5.74398 2.31836,-9.60007 6.93028,-11.52706 5.26404,-2.19945 8.42166,-1.75101 21.13546,3.00164 36.74393,13.73554 69.96953,18.77163 102.31888,15.50873 7.425,-0.74892 15.19894,-1.30809 17.27541,-1.24261 10.06107,0.31727 16.10421,12.04685 10.47459,20.3309 -2.86761,4.21972 -7.55787,6.60007 -15.75,7.99329 -8.61649,1.46538 -47.51949,2.11534 -57,0.95231 z m 99.25632,-13.98955 c -3.59879,-1.44686 -6.24835,-6.79272 -6.25258,-12.61542 -0.003,-4.24303 0.47803,-5.65381 2.74626,-8.05289 3.27316,-3.46198 22.99962,-12.37188 28.75,-12.98559 7.14951,-0.76302 13.80154,5.27104 13.74192,12.46531 -0.0723,8.72268 -3.57511,11.84014 -20.44805,18.19846 -10.74955,4.05081 -14.42479,4.64363 -18.53755,2.99013 z m -217.4356,-30.39674 c -6.17443,-2.16506 -8.96555,-6.20118 -9.07009,-13.11582 -0.1522,-10.06778 9.85746,-16.15617 19.75959,-12.0188 9.60181,4.0119 10.02185,19.22297 0.66094,23.93493 -4.43638,2.23312 -7.48447,2.55529 -11.35044,1.19969 z m 273.88653,-1.59008 c -3.08145,-2.42387 -5.04043,-7.80868 -4.14242,-11.38662 1.06369,-4.2381 5.89902,-7.59774 10.93497,-7.59774 3.52009,0 4.93129,0.58494 7.42328,3.07692 2.52862,2.52863 3.07692,3.88271 3.07692,7.59879 0,3.76909 -0.51703,5.00485 -3.10576,7.42308 -3.87344,3.61834 -10.21,4.01387 -14.18699,0.88557 z M 487.5,746.07347 c -11.17829,-2.34896 -19.05161,-5.1952 -39.18769,-14.16652 -18.93166,-8.4347 -35.38101,-14.08187 -48.87331,-16.77851 -28.78979,-5.75407 -47.33736,-3.19387 -97.91235,13.51526 -20.12584,6.64923 -23.61156,7.52413 -28.12239,7.05857 -9.64138,-0.99507 -17.43483,-6.93145 -20.80462,-15.84714 -1.50938,-3.99348 -1.62338,-19.10132 -1.37285,-181.93367 L 251.5,360.34292 l 3,-4.92146 c 2.3357,-3.83168 4.30088,-5.57145 8.87478,-7.85682 11.1586,-5.57543 20.92068,-3.58627 38.63354,7.87212 3.87973,2.50978 7.24108,4.56324 7.46969,4.56324 0.2286,0 0.55207,-10.0125 0.71881,-22.25 0.34835,-25.56512 0.96755,-28.00403 8.18331,-32.23244 8.48308,-4.97107 13.36211,-4.49347 46.61987,4.56347 59.51134,16.20647 107.60128,36.50901 137.9803,58.25233 l 7.4803,5.35391 6.5197,-4.73976 c 24.65827,-17.92633 62.53508,-35.68145 106.26109,-49.81092 36.6688,-11.84902 64.38339,-18.71236 71.61416,-17.73478 5.84108,0.7897 11.56523,4.15488 14.65748,8.61699 3.43092,4.95082 4.47426,12.3327 4.48118,31.70525 l 0.006,16.22406 4.77631,-2.81622 c 7.87392,-4.64263 17.49497,-8.96011 22.43238,-10.06661 6.00532,-1.34582 13.9512,0.11299 19.07141,3.50138 4.32633,2.86303 9.42443,10.26017 10.24141,14.8599 0.30024,1.69039 0.41823,57.18953 0.26219,123.33141 L 770.5,607.01594 757.89298,598.25797 745.28596,589.5 744.64298,583.60331 C 744.28934,580.36013 744,531.8976 744,475.9088 V 374.11097 l -5.96694,2.69452 -5.96694,2.69451 -0.0331,98.25 c -0.0182,54.0375 -0.26932,98.25 -0.55808,98.25 -0.28876,0 -4.67626,-3.08013 -9.75,-6.84474 -5.07374,-3.76461 -14.44017,-10.68317 -20.8143,-15.37458 l -11.58932,-8.52983 -0.65663,-12.87542 c -0.36114,-7.08149 -0.65844,-55.28793 -0.66067,-107.12543 -0.004,-91.06497 -0.0666,-94.25 -1.85572,-94.25 -6.21066,0 -68.56101,20.02575 -91.64834,29.43571 -25.06839,10.21741 -55.69675,26.15624 -68.25,35.51695 l -3.25,2.42346 v 141.88061 141.88062 l 5.75,-4.9681 c 6.57479,-5.68073 29.43772,-21.21565 36.46676,-24.77846 10.37287,-5.25771 20.04695,-1.71379 22.71891,8.32264 0.91515,3.43751 0.83142,4.90825 -0.4547,7.98636 -2.29264,5.48706 -4.86831,7.8095 -14.95526,13.48493 -4.96414,2.79307 -12.4889,7.30991 -16.72169,10.03741 l -7.69598,4.95909 3.09396,6.27423 3.09396,6.27422 14.4543,-6.35647 c 16.63717,-7.31641 22.97271,-9.38205 28.68124,-9.35124 8.26623,0.0446 20.06208,7.60732 24.04185,15.414 l 2.5163,4.93596 -14.24482,4.64164 c -7.83466,2.5529 -23.01983,8.26197 -33.74483,12.68683 -32.70896,13.49486 -39.51276,15.20411 -63,15.82684 -13.56318,0.35961 -18.1019,0.10086 -25.5,-1.45376 z m 37.75,-27.71532 c 4.47276,-0.7393 4.64857,-1.61948 1,-5.00656 -4.89632,-4.54542 -8.30062,-5.79881 -15.75,-5.79881 -7.27511,0 -11.67237,1.55284 -16.25,5.73851 -3.13716,2.86854 -2.80734,4.51283 1,4.98531 5.49243,0.68161 26.03189,0.73744 30,0.0815 z m -55.73786,-14.79461 c 1.51283,-2.99005 2.51027,-6.06276 2.21653,-6.82823 -1.29348,-3.37076 -27.47116,-16.87682 -42.9771,-22.17352 -15.93634,-5.44372 -27.90137,-7.57026 -46.3953,-8.2458 -32.19764,-1.1761 -60.35037,5.42079 -91.60627,21.46567 -0.4125,0.21175 -0.75,-68.6749 -0.75,-153.08145 V 381.23375 l -6,-3.57418 -6,-3.57418 v 165.9573 C 278,631.31921 278.27211,706 278.60468,706 c 0.33257,0 7.4299,-2.41986 15.77183,-5.37747 37.35427,-13.24383 58.40877,-17.25941 85.50625,-16.30799 18.05001,0.63375 29.91249,2.60249 46.23371,7.6731 9.55578,2.96875 28.74916,10.78932 36.46752,14.8591 2.1538,1.13568 3.97486,2.08476 4.04678,2.10906 0.0719,0.0243 1.36855,-2.40221 2.88137,-5.39226 z M 497.66313,650.25 c -0.36279,-16.9125 -0.66041,-80.71388 -0.66137,-141.78085 L 497,397.4383 486.75,390.98092 c -20.75147,-13.0732 -53.04653,-28.08347 -82.75,-38.46099 -20.58444,-7.1916 -49.32093,-15.82185 -66.24372,-19.89457 l -2.74372,-0.66031 -0.25628,154.5175 c -0.17003,102.51776 0.0802,154.51622 0.74372,154.51367 0.55,-0.002 5.05,-0.69459 10,-1.53884 12.78253,-2.18014 39.00219,-2.98738 50,-1.53938 26.28563,3.46084 46.18962,9.4135 67.97889,20.33034 11.27689,5.64994 21.87978,12.55944 28.52111,18.58611 2.475,2.24594 4.91012,4.10198 5.41137,4.12454 0.54328,0.0245 0.64496,-12.37863 0.25176,-30.70899 z m 188.5455,93.22487 c -12.4789,-2.70972 -22.3432,-9.02933 -28.04835,-17.9693 C 654.39131,719.59958 634,681.82759 634,680.75209 c 0,-0.50714 -2.07608,0.90537 -4.6135,3.1389 -4.99339,4.39536 -9.02524,5.63526 -15.83028,4.86824 -5.71829,-0.64454 -9.01409,-3.18578 -12.07238,-9.30847 l -2.5221,-5.04925 0.26913,-73.62054 0.26913,-73.62055 2.5,-2.71213 c 5.09857,-5.53119 13.78958,-7.82893 19.70295,-5.20909 3.2361,1.43372 21.09929,14.31487 62.79705,45.28299 8.25,6.12711 25.97486,19.20367 39.38859,29.05901 15.02466,11.03893 25.26013,19.26262 26.65856,21.4188 3.01607,4.65039 3.80456,8.98013 2.51054,13.78577 -1.48399,5.51109 -4.6003,9.09433 -10.14235,11.662 l -4.74238,2.19717 3.16352,4.56449 c 1.73994,2.51047 7.51546,10.57785 12.8345,17.92753 13.22763,18.27751 15.20318,22.39887 15.27339,31.86304 0.10632,14.33394 -7.89094,27.47143 -21.83248,35.86526 -16.29678,9.81186 -43.46155,14.50554 -61.40326,10.60961 z m 32.98706,-31.59632 C 731.44837,708.48316 738,703.82053 738,698.49599 c 0,-1.22887 -3.2357,-6.68068 -7.19044,-12.11514 -20.87428,-28.68468 -32.85515,-45.56833 -34.25006,-48.26579 -2.38884,-4.61951 -1.99883,-8.62432 1.07536,-11.04248 2.09396,-1.64711 4.0955,-2.0786 9.75,-2.10189 l 7.11514,-0.0293 -3.10933,-2.72068 c -4.66074,-4.07818 -8.13167,-6.6746 -38.7478,-28.98521 -15.47858,-11.27956 -31.2574,-22.92191 -35.06406,-25.87189 C 633.77216,564.41362 630.28466,562 629.82881,562 629.37297,562 629,586.075 629,615.5 c 0,29.425 0.25054,53.5 0.55675,53.5 0.30621,0 5.50189,-4.275 11.54595,-9.5 6.04407,-5.225 11.40079,-9.5 11.90383,-9.5 1.81056,0 3.44355,2.91511 17.36562,31 15.33642,30.93805 15.40614,31.03081 24.7813,32.97071 5.66589,1.17239 15.28115,0.33567 24.04224,-2.09216 z M 504.18982,312.97437 c -6.13846,-3.74252 -6.29065,-4.92721 -5.97446,-46.50694 l 0.28464,-37.431 3.00475,-3.00373 c 4.10666,-4.10528 10.64653,-4.98777 15.30543,-2.06532 6.16215,3.86541 6.31307,5.03805 5.98504,46.50504 -0.28225,35.68108 -0.38296,37.41708 -2.29286,39.52627 -4.70713,5.19827 -10.83391,6.3159 -16.31254,2.97568 z m -48.03679,-11.49906 c -1.91018,-1.60731 -6.48007,-9.39312 -12.57672,-21.42724 -11.29476,-22.29458 -11.65525,-24.20442 -5.69396,-30.16572 3.50121,-3.5012 4.38622,-3.88235 9.01469,-3.88235 7.70459,0 10.32831,3.03722 20.6199,23.86961 4.71949,9.55328 8.82388,18.58451 9.12086,20.0694 0.29698,1.48488 -0.14796,4.34621 -0.98874,6.35849 -3.10709,7.4363 -13.52408,10.20288 -19.49603,5.17781 z m 94.26728,0.63922 c -3.81767,-2.32801 -5.83992,-6.981 -5.16466,-11.8834 0.28265,-2.05212 4.51994,-11.82445 9.4162,-21.71627 9.90635,-20.01366 12.12769,-22.54506 19.72603,-22.47942 4.99431,0.0431 8.10055,1.65576 10.65578,5.53199 3.20684,4.86472 2.47844,8.34679 -4.4207,21.13274 -3.50187,6.48991 -7.163,13.93733 -8.13585,16.54983 -0.97286,2.6125 -2.1031,4.75 -2.51165,4.75 -0.40855,0 -1.30833,1.36525 -1.9995,3.03389 -2.77409,6.69725 -11.00876,9.07903 -17.56565,5.08064 z"
         id="path28" />
      <path
         style="fill:#2c004f;fill-opacity:1"
         d="m 486.58949,799.97352 c -22.58545,-2.59047 -57.79458,-12.52929 -77.91045,-21.99253 -7.34488,-3.4553 -10.3551,-9.47969 -8.46248,-16.93604 2.12029,-8.35327 10.0687,-10.74051 21.79537,-6.54605 29.94685,10.71157 43.37739,14.3122 63.49214,17.02179 12.98832,1.74961 30.94946,1.70716 57.01969,-0.13476 8.77512,-0.61997 9.11217,-0.56316 12.23194,2.06196 6.69967,5.6374 6.58878,15.89937 -0.22799,21.09877 -2.29425,1.74992 -5.95969,3.06854 -11.21773,4.03552 -9.5423,1.75489 -45.79718,2.64421 -56.72049,1.39134 z m 97.17308,-14.53891 c -7.77067,-4.21632 -7.6784,-18.09954 0.15103,-22.7245 4.1197,-2.43357 20.70441,-9.4673 24.06116,-10.20457 4.17228,-0.91638 9.47557,1.0525 12.49251,4.63794 1.92153,2.2836 2.53183,4.13773 2.52899,7.68325 -0.007,8.97626 -3.71178,12.06286 -23.02479,19.18379 -9.02917,3.32916 -12.1866,3.60657 -16.2089,1.42409 z M 362.33125,752.66476 c -3.16283,-2.89852 -3.69197,-4.04427 -4.04098,-8.75 -0.49278,-6.64399 1.72441,-10.74478 7.21917,-13.35222 C 374.65141,726.2244 385,732.56264 385,742.5 c 0,7.95049 -5.85455,13.48966 -14.26469,13.49626 -4.00914,0.003 -5.34178,-0.52513 -8.40406,-3.3315 z m 277.59183,0.41216 C 637.47367,750.62751 637,749.34557 637,745.16582 c 0,-4.34227 0.39832,-5.3232 3.07673,-7.57693 7.06372,-5.94373 17.8485,-1.28857 17.90103,7.72685 0.0282,4.84706 -1.28315,7.2737 -4.95774,9.17391 -4.79994,2.48214 -9.73433,1.94988 -13.09694,-1.41273 z M 490.5,746.47259 c -12.34593,-2.29335 -19.51538,-4.73593 -39,-13.28701 -30.60628,-13.43196 -45.79214,-18.13861 -65.75606,-20.38017 -20.80783,-2.33631 -40.91069,1.40614 -82.74394,15.40404 -18.00125,6.02343 -22.55776,7.19033 -28,7.1707 -9.62018,-0.0347 -16.72338,-4.32165 -21.34158,-12.88015 L 251.5,718.5 V 539.42158 360.34316 l 3.01544,-4.87736 c 4.24903,-6.87264 11.26817,-10.47454 20.34875,-10.44206 7.93533,0.0284 13.94721,2.29389 25.96502,9.78463 4.58106,2.8554 8.51856,5.19163 8.75,5.19163 0.23143,0 0.42079,-9.47908 0.42079,-21.06462 0,-18.9172 0.20583,-21.54227 2.01906,-25.75 3.60444,-8.36435 11.97596,-12.03574 23.26775,-10.20423 27.56747,4.47138 93.87126,26.19865 125.29988,41.05984 17.68079,8.36046 40.12008,21.71333 46.62423,27.74452 l 2.71092,2.51379 5.28908,-3.98321 C 546.67498,346.6205 604.06761,322.56024 669,305.8443 c 22.37777,-5.76085 31.30485,-5.3586 38.32482,1.72688 4.95837,5.00465 5.47351,7.63778 5.83759,29.83931 0.18568,11.32201 0.57748,20.47389 0.87068,20.3375 0.2932,-0.1364 5.69044,-2.91012 11.99388,-6.16383 10.12431,-5.22597 12.29394,-5.9693 18.60541,-6.37435 6.12352,-0.39298 7.93671,-0.0959 12.68678,2.07877 6.14592,2.81369 10.99319,8.44397 12.68782,14.73736 0.64877,2.40934 0.91168,46.13246 0.74705,124.23966 L 770.5,606.78757 758.71726,598.4662 c -6.48051,-4.57675 -12.33051,-8.50385 -13,-8.72689 -0.94384,-0.31445 -1.28281,-24.52367 -1.50908,-107.78091 -0.16049,-59.05645 -0.4311,-107.51465 -0.60134,-107.68489 -0.17023,-0.17024 -2.8236,0.93608 -5.89637,2.45848 l -5.58686,2.76801 -0.0618,98.34381 -0.0618,98.3438 -5.25,-3.74513 c -11.8167,-8.42952 -18.53248,-13.30638 -27.89614,-20.25763 L 689,544.8697 688.87765,508.68485 c -0.12631,-37.35456 -0.60454,-137.97164 -0.77884,-163.86272 L 688,330.14426 l -9.25,2.47341 c -42.849,11.45766 -86.59121,27.28835 -115.9771,41.97313 -13.23229,6.61247 -34.21731,19.08778 -37.90915,22.53648 -3.04205,2.8417 -3.12177,3.12998 -2.50294,9.05065 0.35155,3.3635 0.63919,66.8518 0.63919,141.08512 v 134.96967 l 3.75,-3.37694 c 5.90762,-5.31991 20.57028,-15.61843 32.07313,-22.52698 8.85106,-5.31591 11.26889,-6.3282 15.10721,-6.32506 14.38265,0.0118 19.5442,17.43063 7.81582,26.3763 -1.79077,1.36589 -7.07875,4.59234 -11.75105,7.16989 -4.67231,2.57755 -11.49661,6.69399 -15.16511,9.14764 l -6.66999,4.46119 2.94569,6.17062 c 1.62013,3.39384 3.49662,6.03905 4.16999,5.87824 0.67337,-0.16081 6.62909,-2.70724 13.23493,-5.65873 22.36007,-9.99049 28.99341,-11.31773 37.43192,-7.48962 8.27863,3.75559 17.04294,12.49492 17.05372,17.00512 0.003,1.12523 -3.29471,2.58416 -11.74626,5.1971 -6.4625,1.99799 -19.4,6.84757 -28.75,10.77685 -21.42744,9.00475 -36.76288,14.38753 -47,16.49713 -11.27087,2.32263 -34.89303,2.81456 -45,0.93712 z m 38.05393,-28.69138 c 1.40738,-1.41093 -2.53482,-5.59279 -7.69748,-8.16545 -9.12731,-4.54833 -19.26975,-3.08263 -26.28788,3.79891 l -4.06857,3.98939 3.5,0.70918 c 4.46086,0.90388 33.60043,0.62387 34.55393,-0.33203 z M 469.9789,703.25 l 3.12911,-5.75 -2.98515,-2.5 c -4.93415,-4.13225 -24.95147,-14.5324 -35.62286,-18.50811 -12.05417,-4.49089 -25.37146,-7.88857 -37.31865,-9.52123 -11.2653,-1.53948 -39.71713,-0.78063 -51.18135,1.36508 -16.38771,3.06721 -36.05338,9.62403 -50.0377,16.68329 L 290,688.02879 V 534.5948 381.16081 l -5.75,-3.51686 -5.75,-3.51685 -0.25296,165.60016 c -0.13913,91.08008 -0.0693,165.78387 0.15529,166.0084 0.22453,0.22453 10.46336,-2.99276 22.75295,-7.14953 34.59593,-11.70157 54.52106,-15.27599 79.7298,-14.30296 25.31748,0.97723 48.84808,7.19649 76.11492,20.11758 5.225,2.476 9.5787,4.52374 9.67489,4.55053 0.0962,0.0268 1.58299,-2.53878 3.30401,-5.70128 z m 27.95726,-163.78525 -0.16759,-141.35309 -9.13429,-5.95734 c -22.83534,-14.89312 -49.06247,-27.14021 -86.79602,-40.53053 -23.78227,-8.43949 -65.06181,-20.2217 -66.88972,-19.09198 -1.35374,0.83665 -0.70993,309.01548 0.64504,308.77033 31.14515,-5.63505 52.74109,-5.55171 80.68069,0.31133 28.20386,5.9185 60.96524,21.29677 75.72573,35.54584 2.475,2.38925 4.86084,4.18984 5.30187,4.00131 0.44103,-0.18852 0.72646,-63.95166 0.63429,-141.69587 z M 688.5,743.92713 c -11.13129,-1.86797 -20.15165,-6.45237 -26.18711,-13.30901 -3.77478,-4.28837 -5.9596,-8.01723 -21.58395,-36.83757 l -7.43771,-13.71945 -2.39562,2.56677 c -5.50043,5.89341 -15.55043,8.15335 -21.82615,4.90805 -3.91761,-2.02588 -7.7955,-6.88835 -9.02545,-11.31697 -0.66567,-2.39685 -1.03429,-28.95974 -1.03688,-74.71895 -0.004,-65.60623 0.1288,-71.26438 1.74442,-74.48007 3.49429,-6.95495 13.35985,-10.67153 20.45642,-7.70639 3.9243,1.63967 14.91347,9.47667 58.40269,41.65023 16.01087,11.84493 38.14685,28.21224 49.19107,36.37181 11.04422,8.15957 20.74523,15.85025 21.55781,17.0904 6.08252,9.28309 2.50123,21.7161 -7.51054,26.07402 -2.39195,1.04116 -4.49839,1.99149 -4.68098,2.11183 -0.1826,0.12034 5.38759,8.01941 12.37818,17.55349 13.90748,18.96763 18.00245,26.374 19.00101,34.36621 1.27513,10.20585 -4.27199,23.22685 -13.54636,31.79794 -14.53096,13.42907 -45.00269,21.37314 -67.50085,17.59766 z m 23.87335,-30.43301 c 11.09962,-1.93561 22.22302,-6.8129 24.18331,-10.60368 2.28056,-4.41012 1.78719,-6.20348 -3.86121,-14.03535 C 729.77795,684.80979 721.37444,673.175 714.02099,663 693.06556,634.00391 692.37877,632.53032 697.45455,627.45455 699.59609,625.313 700.80752,625 706.95455,625 c 3.875,0 7.02061,-0.3375 6.99025,-0.75 C 713.881,623.38309 705.467,616.95858 685,602.14918 664.96921,587.65542 636.0027,566.27655 630.25,561.7407 629.25326,560.9548 629,571.72062 629,614.87756 629,644.6449 629.3421,669 629.76022,669 c 0.41812,0 1.88451,-1.0125 3.25864,-2.25 3.94984,-3.5571 16.30364,-14.15861 18.23114,-15.6452 1.37727,-1.06222 2.06051,-1.09199 3.20788,-0.13976 0.80184,0.66547 7.71386,13.88307 15.36006,29.37245 7.64619,15.48938 14.85734,29.01269 16.02476,30.0518 2.14377,1.90812 10.45025,4.36895 15.27631,4.52566 1.44046,0.0468 6.50491,-0.59259 11.25434,-1.42083 z M 504.41996,313.17058 C 498.16104,309.23957 498,308.10016 498,267.74675 c 0,-36.2962 0.01,-36.46541 2.2826,-39.84887 3.21571,-4.78692 9.10573,-6.78268 14.24488,-4.8267 2.06673,0.7866 4.70603,2.69971 5.86511,4.25135 2.0392,2.72985 2.11664,3.99429 2.39246,39.06355 0.30872,39.25277 -0.008,42.23381 -4.87163,45.84164 -3.86518,2.86724 -9.77229,3.28 -13.49346,0.94286 z M 456.06737,301.25 c -1.6628,-1.54266 -7.20351,-11.07101 -12.62022,-21.70297 -8.59905,-16.8783 -9.59799,-19.38576 -9.12574,-22.90662 0.811,-6.04652 5.16141,-9.85005 11.90604,-10.40937 8.25371,-0.68446 10.17194,1.47218 21.3801,24.03745 5.16585,10.40033 9.39245,19.8141 9.39245,20.91947 0,1.10538 -0.75148,3.59342 -1.66996,5.52897 -3.50615,7.38865 -13.61938,9.76859 -19.26267,4.53307 z m 93.31941,-0.53435 c -2.82176,-2.58595 -3.68602,-4.23394 -4.06438,-7.75 -0.43125,-4.00768 0.30021,-6.05524 7.13241,-19.96565 10.65173,-21.68702 10.97426,-22.2338 14.59937,-24.75 6.23212,-4.32574 15.33003,-2.17479 18.42966,4.35719 2.77326,5.84422 2.40032,6.97368 -9.21003,27.89281 -0.61051,1.1 -3.04171,5.97944 -5.40267,10.8432 C 565.81339,301.76258 563.42326,304 557.35046,304 c -3.55662,0 -5.05343,-0.61731 -7.96368,-3.28435 z"
         id="path27" />
      <path
         style="fill:#2c004f;fill-opacity:1"
         d="m 484.82124,799.56432 c -19.79167,-2.53482 -38.58756,-7.33235 -59.54386,-15.1982 -17.74166,-6.65924 -19.34073,-7.46427 -22.65826,-11.40693 -2.90723,-3.45504 -3.55132,-9.81913 -1.4586,-14.41214 1.31363,-2.8831 1.8569,-3.06655 3.84125,-1.29705 1.17703,1.04959 1.20712,0.9907 0.18767,-0.36732 -1.61956,-2.15744 0.11424,-3.58779 5.3671,-4.42776 3.23811,-0.51779 6.40949,0.27002 17.45038,4.33493 39.58976,14.5757 68.81235,18.69881 106.72673,15.05841 14.37702,-1.38043 18.93411,-0.52795 22.27745,4.16733 3.18736,4.47624 3.55517,8.9541 1.12652,13.71466 -4.00709,7.85453 -12.77173,10.01348 -43.63762,10.749 -12.76006,0.30406 -22.50709,0.004 -29.67876,-0.91493 z m 98.93442,-14.31911 c -4.93675,-3.06094 -7.08478,-10.61917 -4.75753,-16.74028 0.54897,-1.44391 1.44381,-2.34983 1.98854,-2.01317 0.58932,0.36422 0.72375,-0.0828 0.33194,-1.10387 -0.44676,-1.16422 -0.28231,-1.48349 0.51145,-0.99292 0.64347,0.39769 1.16994,0.31737 1.16994,-0.17848 0,-1.43771 16.76471,-9.26823 24.0328,-11.22532 8.41198,-2.26511 15.9672,3.26213 15.9672,11.68126 0,8.84693 -4.54042,12.58622 -23.32968,19.21329 -10.08281,3.55627 -12.09448,3.72811 -15.91466,1.35949 z M 366.49292,755.01145 c 0.33603,-0.5437 0.005,-0.75595 -0.73601,-0.47166 -1.35813,0.52116 -4.67852,-2.65629 -6.67599,-6.38859 -2.70281,-5.05025 0.77352,-17.18851 4.51185,-15.75397 0.83111,0.31892 1.24974,0.15697 0.9303,-0.3599 -0.31944,-0.51686 1.17449,-1.46565 3.31984,-2.10841 9.74186,-2.91873 19.27328,6.50337 16.74981,16.55769 -0.39519,1.57456 -1.09387,2.3217 -1.77655,1.89978 -0.70745,-0.43723 -0.84583,-0.24339 -0.37272,0.52211 0.97831,1.58293 -2.39507,5.32404 -4.18229,4.63822 -0.75077,-0.2881 -1.12172,-0.13013 -0.82435,0.35104 0.68982,1.11615 -2.85156,2.07104 -7.74583,2.08859 -2.25823,0.008 -3.56027,-0.38882 -3.19806,-0.9749 z m 275.28222,-0.57025 c -1.49867,-0.8133 -3.18617,-2.3407 -3.75,-3.39422 -1.32107,-2.46844 -1.31857,-8.63019 0.005,-11.10237 1.36122,-2.54345 6.14156,-4.94461 9.84397,-4.94461 3.53346,0 9.49826,4.58853 8.69293,6.68719 -0.30057,0.78327 -0.10165,1.14352 0.44491,0.80573 1.33805,-0.82695 1.26827,4.79905 -0.0967,7.79476 -2.3218,5.09578 -9.6823,7.11511 -15.13965,4.15352 z M 497.5,747.39544 c -16.89018,-2.52278 -25.52439,-5.21849 -45.59834,-14.23635 -43.86219,-19.7043 -73.04311,-24.9585 -102.64609,-18.48207 -4.26556,0.9332 -8.9501,1.72514 -10.41008,1.75986 -1.45998,0.0347 -2.47351,0.35598 -2.25229,0.71393 0.22123,0.35794 -1.95924,1.1979 -4.84549,1.86657 -2.88624,0.66866 -13.3294,3.8753 -23.20701,7.12586 -9.87762,3.25056 -18.56349,5.67826 -19.30194,5.39489 -0.73845,-0.28337 -1.109,-0.13719 -0.82344,0.32485 0.54019,0.87405 -4.23399,2.52576 -10.62904,3.67728 -6.04664,1.08878 -14.39268,-2.09436 -19.51896,-7.44444 C 250.44356,719.93049 251,734.35079 251,539.76132 c 0,-122.01032 0.32464,-175.16493 1.08832,-178.19781 1.22316,-4.85758 6.5032,-11.934 8.14665,-10.91829 0.6394,0.39517 0.78327,0.19331 0.35552,-0.49881 C 259.40132,348.2223 268.39666,345 274.95718,345 c 7.58814,0 12.40445,1.79904 24.1659,9.02671 5.34612,3.28531 9.98048,5.97329 10.29857,5.97329 0.31809,0 0.58823,-9.5625 0.60031,-21.25 0.024,-23.21528 0.66762,-26.44461 6.3052,-31.63587 3.19427,-2.94138 11.36745,-5.1695 16.4078,-4.47299 13.66402,1.88818 57.55917,14.29642 83.26504,23.53728 32.51249,11.68773 76.06111,32.29564 74.29294,35.15662 -0.3344,0.54106 -0.0858,0.65495 0.55938,0.25623 1.5178,-0.93805 7.37168,3.23727 6.50493,4.63971 -0.38016,0.61511 -0.20134,0.7907 0.41643,0.4089 0.91388,-0.56482 3.87132,1.14774 11.7226,6.78817 0.88667,0.63699 2.29245,0.0861 4.48244,-1.75669 1.75484,-1.4766 3.67205,-2.3872 4.26046,-2.02354 0.59613,0.36843 0.78146,0.1946 0.41856,-0.39259 -1.40392,-2.27159 38.01875,-24.71377 54.84226,-31.2201 2.75,-1.06354 8.375,-3.33736 12.5,-5.05294 17.58224,-7.31242 41.85168,-15.51278 67.5,-22.80746 35.78357,-10.17727 45.94033,-10.6514 53.69695,-2.50664 5.22833,5.48995 5.80305,8.49078 5.80305,30.29979 0,12.94829 0.36065,20.03212 1.01987,20.03212 0.56093,0 2.70473,-1.0636 4.764,-2.36356 17.67453,-11.15745 30.67089,-13.42384 40.68995,-7.09579 4.29342,2.71174 11.1168,10.97547 7.4989,9.08186 -0.82334,-0.43094 -0.71842,-0.15102 0.23797,0.63483 0.94087,0.77311 2.17837,2.63577 2.75,4.13925 C 770.65898,364.23324 771,404.8193 771,486.08815 v 120.95796 l -2.49141,-1.63244 c -1.37028,-0.89784 -2.20075,-2.10274 -1.8455,-2.67756 0.35933,-0.5814 0.16836,-0.74997 -0.4304,-0.37992 -0.59197,0.36586 -5.6115,-2.53539 -11.15451,-6.44722 L 745,588.79655 744.78598,486.14828 c -0.23428,-112.3634 -0.22089,-110.91652 -1.03437,-111.73001 -0.31116,-0.31116 -1.97078,0.16083 -3.68805,1.04886 -1.71726,0.88803 -3.62861,1.30168 -4.24744,0.91923 -0.65991,-0.40785 -0.84851,-0.24778 -0.45611,0.38714 0.36797,0.59538 -0.23531,1.36953 -1.34062,1.72035 -1.99263,0.63243 -2.01182,1.47083 -2.26452,98.97211 L 731.5,575.80024 720,567.34077 c -6.325,-4.65271 -11.37635,-8.91622 -11.22522,-9.47445 0.15112,-0.55824 -0.17367,-0.73783 -0.72176,-0.39909 -1.39191,0.86025 -6.17935,-2.4538 -5.38993,-3.73112 0.36108,-0.58424 0.16789,-0.74968 -0.4381,-0.37516 -0.59621,0.36848 -3.81574,-1.6034 -7.1545,-4.38195 L 689,543.92709 V 436.96354 C 689,378.13359 688.63096,330 688.17991,330 684.3525,330 627.72297,347.53055 609,354.51137 c -13.15598,4.90517 -39.38876,16.15649 -46.56232,19.97071 -2.66444,1.4167 -5.45129,2.34294 -6.193,2.05832 -0.7417,-0.28462 -1.08429,-0.0899 -0.7613,0.43271 0.32299,0.52261 -1.22398,1.87423 -3.43771,3.00359 -6.62448,3.37956 -22.26938,13.05077 -26.43966,16.34421 l -3.894,3.07524 0.63673,12.58071 c 0.3502,6.91939 0.64661,71.24864 0.65869,142.9539 0.0188,111.88364 0.32537,136.22281 1.60575,127.49906 0.25192,-1.71645 5.40751,-6.0733 6.69177,-5.65504 0.46404,0.15112 0.57266,-0.1638 0.24137,-0.69983 -0.74085,-1.19873 2.88307,-3.28231 3.98252,-2.28977 0.4355,0.39315 0.49853,0.20154 0.14007,-0.4258 -0.67472,-1.18084 3.82018,-4.69271 6.00628,-4.69271 0.68026,0 1.03308,-0.32968 0.78406,-0.73261 -0.48231,-0.7804 14.89715,-11.05301 22.98994,-15.35599 5.72831,-3.04577 10.77344,-3.27986 15.54424,-0.72126 4.3871,2.35283 6.84011,6.50618 6.93348,11.73955 0.11411,6.3956 -5.05546,14.67829 -8.01841,12.84709 -0.73934,-0.45694 -0.95954,-0.33505 -0.56065,0.31036 0.92381,1.49476 -13.72691,9.39183 -16.03647,8.64403 -1.25665,-0.40689 -1.42455,-0.30737 -0.54824,0.32497 0.90364,0.65205 -0.8697,2.26257 -6.23074,5.65866 -4.12163,2.61095 -7.72667,5.12385 -8.01119,5.58421 -0.28452,0.46037 0.60139,2.79392 1.96869,5.18568 1.36731,2.39175 2.49143,5.18862 2.49805,6.21527 0.0152,2.35251 -0.10769,2.39083 18.5853,-5.79631 19.34299,-8.47183 24.51982,-9.63268 31.84829,-7.14165 6.62199,2.25088 16.98485,10.06992 16.16783,12.19904 -0.31916,0.8317 -0.13406,1.20893 0.42396,0.86405 0.87513,-0.54086 2.98667,3.30625 2.98667,5.44156 0,0.71696 -10.17045,4.04921 -14,4.58698 -0.825,0.11585 -3.17305,0.94617 -5.21788,1.84517 -2.04484,0.89899 -3.96845,1.63453 -4.2747,1.63453 -0.30626,0 -10.44564,4.06462 -22.53196,9.03248 -24.29701,9.98685 -30.8004,12.19755 -42.52681,14.45612 -7.98466,1.5379 -31.34675,2.74356 -36.94865,1.90684 z M 264,730.60699 c 0,-0.21616 -0.69837,-0.661 -1.55194,-0.98855 -0.88992,-0.34149 -1.29132,-0.17385 -0.94098,0.39301 0.58726,0.95021 2.49292,1.40545 2.49292,0.59554 z m 7.66667,-1.01165 c 0,-0.80126 -0.60878,-1.17105 -1.41718,-0.86084 -1.16627,0.44754 -1.18103,0.69352 -0.0833,1.38935 0.73362,0.46504 1.37135,0.85242 1.41718,0.86084 0.0458,0.008 0.0833,-0.61679 0.0833,-1.38935 z M 460,730 c 0,-0.55 -0.47656,-1 -1.05902,-1 -0.58246,0 -0.7809,0.45 -0.44098,1 0.33992,0.55 0.81648,1 1.05902,1 0.24254,0 0.44098,-0.45 0.44098,-1 z m -196.72062,-3.03966 c -0.29336,-1.12182 -0.75683,-1.81623 -1.02992,-1.54313 -0.541,0.54099 0.41459,3.58279 1.12554,3.58279 0.24077,0 0.19774,-0.91785 -0.0956,-2.03966 z M 590,722 c 0.825,-0.53316 1.05,-0.96937 0.5,-0.96937 -0.55,0 -1.675,0.43621 -2.5,0.96937 -0.825,0.53316 -1.05,0.96937 -0.5,0.96937 0.55,0 1.675,-0.43621 2.5,-0.96937 z m -67.75243,-2.88681 c 3.16117,-0.39492 6.10505,-0.36057 6.54196,0.0763 0.43691,0.43691 0.77698,-0.51498 0.7557,-2.11533 -0.0213,-1.60034 -0.26516,-2.83579 -0.54196,-2.74543 -0.2768,0.0904 -2.07827,-1.00951 -4.00327,-2.44414 -8.9365,-6.66005 -21.05999,-6.58828 -29.25676,0.17319 -3.31677,2.73598 -7.37897,8.07115 -5.04893,6.63111 0.49161,-0.30383 4.924,-0.19588 9.84976,0.23989 11.60454,1.02663 14.7479,1.05333 21.7035,0.18437 z m -110.5184,-5.71736 c -0.33229,-0.33229 -1.1948,-0.36781 -1.91667,-0.0789 -0.79773,0.31922 -0.56078,0.55618 0.60417,0.60416 1.05416,0.0434 1.64479,-0.19293 1.3125,-0.52522 z m 58.17537,-9.88068 c 1.7025,-3.01667 3.09448,-5.82917 3.09328,-6.25 -10e-4,-0.42083 -1.98379,-2.11424 -4.40576,-3.76312 -2.42198,-1.64888 -4.22584,-3.28557 -4.00859,-3.63709 0.21725,-0.35152 -0.16265,-0.58386 -0.84423,-0.51631 -0.68158,0.0676 -6.86424,-2.65718 -13.73924,-6.05496 -22.39065,-11.06597 -40.77876,-16.03306 -63.5,-17.15293 -24.35917,-1.20061 -45.56178,1.73261 -67.90201,9.39372 -5.4461,1.86763 -10.35313,3.11687 -10.90451,2.7761 -0.56687,-0.35034 -0.69244,-0.11789 -0.28897,0.53493 0.39244,0.63498 0.25647,1.15451 -0.30216,1.15451 -0.55862,0 -4.63518,1.73736 -9.05902,3.8608 L 290,687.7216 V 533.8608 C 290,409.03179 289.75701,380 288.71223,380 c -0.70828,0 -2.84578,-1.33171 -4.75,-2.95936 -1.90423,-1.62765 -4.02473,-2.97765 -4.71223,-3 -0.99516,-0.0324 -1.25,33.8994 -1.25,166.43461 V 706.9505 l 2.58392,-0.9824 c 1.42115,-0.54033 3.06568,-0.68466 3.6545,-0.32075 0.58883,0.36392 0.799,0.22221 0.46705,-0.31489 -1.21573,-1.9671 39.72542,-14.79804 58.92812,-18.46806 15.62921,-2.98706 44.97156,-3.24546 58.86641,-0.51839 18.6432,3.65899 40.93349,11.22779 56.30468,19.11859 3.68243,1.89037 6.98986,3.45917 7.34986,3.48622 0.36,0.0271 2.0475,-2.419 3.75,-5.43567 z M 330.72917,693.39583 c -0.33229,-0.33229 -1.1948,-0.36781 -1.91667,-0.0789 -0.79773,0.31922 -0.56078,0.55618 0.60417,0.60416 1.05416,0.0434 1.64479,-0.19293 1.3125,-0.52522 z M 526,687.39235 c 0,-0.82763 -1.94173,-1.29565 -2.38691,-0.57533 -0.28881,0.46731 0.13009,0.84965 0.9309,0.84965 0.8008,0 1.45601,-0.12345 1.45601,-0.27432 z M 498,540.03518 c 0,-141.5949 -0.005,-141.96764 -2.02801,-143.05017 -1.1154,-0.59695 -1.72087,-1.58231 -1.34549,-2.18969 0.39302,-0.63592 0.22788,-0.82335 -0.38933,-0.4419 -0.58952,0.36435 -3.69655,-1.05662 -6.90451,-3.15769 -7.689,-5.03597 -12.11105,-7.7155 -16.15317,-9.78802 -2.51871,-1.29141 -3.00165,-1.93117 -2,-2.64944 0.98746,-0.70811 0.89112,-0.80955 -0.38198,-0.40222 -0.96052,0.30732 -7.49769,-2.21179 -15,-5.78028 -7.31363,-3.47875 -14.31654,-6.63882 -15.56203,-7.02238 -1.27301,-0.39204 -1.97159,-1.17136 -1.59549,-1.77989 0.36796,-0.59539 0.21303,-0.8007 -0.34429,-0.45625 -0.55732,0.34444 -8.61435,-2.23041 -17.90451,-5.72189 -22.17069,-8.33232 -35.05032,-12.5623 -56.89119,-18.68445 -9.9,-2.77503 -19.90248,-5.62525 -22.22774,-6.33381 -2.32526,-0.70855 -4.46276,-1.05327 -4.75,-0.76603 -0.69601,0.69601 -0.67595,308.70191 0.0202,309.39801 0.29833,0.29832 3.56228,-0.033 7.25322,-0.73628 34.56468,-6.58601 72.72682,-2.64261 106.60691,11.01597 18.74311,7.55619 36.90637,18.32613 35.9504,21.31686 -0.39205,1.2265 -0.28696,1.34078 0.3806,0.41386 0.70154,-0.97411 2.15977,-0.27379 6.09433,2.92683 2.84467,2.31403 5.17213,4.57776 5.17213,5.03051 0,0.45274 0.45,0.82317 1,0.82317 0.66197,0 1,-47.98827 1,-141.96482 z m 83.48429,132.9394 c -0.30159,-0.48798 -1.24666,-0.61926 -2.10016,-0.29174 -1.21217,0.46515 -1.27033,0.76946 -0.26572,1.39034 1.5168,0.93744 3.15429,0.17707 2.36588,-1.0986 z M 749,589.62244 c 0,-0.20765 -0.7875,-0.99515 -1.75,-1.75 -1.58606,-1.24387 -1.62143,-1.2085 -0.37756,0.37756 1.30637,1.66575 2.12756,2.19548 2.12756,1.37244 z m 1.57143,-2.40815 c 0,-1.03276 -0.73654,-1.78572 -1.74678,-1.78572 -1.61356,0 -1.62353,0.13618 -0.13072,1.78572 0.88882,0.98214 1.67487,1.78571 1.74677,1.78571 0.0719,0 0.13073,-0.80357 0.13073,-1.78571 z M 550,378.60699 c 0,-0.21616 -0.69837,-0.661 -1.55194,-0.98855 -0.88992,-0.34149 -1.29132,-0.17385 -0.94098,0.39301 0.58726,0.95021 2.49292,1.40545 2.49292,0.59554 z M 527.5,367 c 0.33992,-0.55 0.14148,-1 -0.44098,-1 -0.58246,0 -1.05902,0.45 -1.05902,1 0,0.55 0.19844,1 0.44098,1 0.24254,0 0.7191,-0.45 1.05902,-1 z M 399.62818,346.20182 c -1.5795,-0.19699 -3.2666,0.0366 -3.7491,0.5191 -0.50302,0.50302 0.72209,0.65582 2.87183,0.35817 3.45117,-0.47784 3.52089,-0.54755 0.87727,-0.87727 z M 370.5,339 c -0.33992,-0.55 -1.15398,-0.99311 -1.80902,-0.98469 -0.71561,0.009 -0.59227,0.40223 0.30902,0.98469 1.92112,1.24153 2.2673,1.24153 1.5,0 z m 221.22917,-4.60417 c -0.33229,-0.33229 -1.1948,-0.36781 -1.91667,-0.0789 -0.79773,0.31922 -0.56078,0.55618 0.60417,0.60416 1.05416,0.0434 1.64479,-0.19293 1.3125,-0.52522 z M 319.38156,308.44806 c 0.34149,-0.88992 0.17385,-1.29132 -0.39301,-0.94098 -0.5437,0.33602 -0.98855,1.0344 -0.98855,1.55194 0,1.43843 0.71677,1.12146 1.38156,-0.61096 z m 370.48842,435.54662 c -8.75274,-1.38797 -16.59957,-4.54284 -22.36816,-8.99328 -6.02456,-4.64791 -11.06281,-11.28468 -9.94262,-13.09719 0.45782,-0.74076 0.33105,-0.95441 -0.32553,-0.54863 -0.62245,0.3847 -2.31718,-1.55076 -4.02393,-4.59549 -2.70024,-4.81706 -14.6743,-27.48086 -17.96868,-34.01009 -1.69282,-3.35504 -1.96094,-3.37583 -4.35103,-0.33732 -4.29252,5.45705 -17.82702,8.77802 -20.8635,5.11929 -0.67009,-0.80742 -1.73769,-1.36992 -2.37244,-1.25 -0.63475,0.11992 -1.03044,-0.37792 -0.87931,-1.1063 0.15112,-0.72838 -0.12624,-1.07649 -0.61636,-0.77358 -1.46662,0.90642 -4.20279,-2.89913 -5.72783,-7.96646 -2.08215,-6.91845 -2.12978,-143.82647 -0.0518,-148.79985 1.87583,-4.48949 5.73629,-7.29432 11.95514,-8.68604 4.29407,-0.96097 5.83814,-0.90467 8.76843,0.31968 4.07138,1.70113 20.49649,13.6541 20.20317,14.70236 -0.10695,0.38219 0.39443,0.69489 1.11417,0.69489 2.15806,0 22.59661,15.49787 21.90799,16.61209 -0.35021,0.56664 -0.16343,0.73774 0.41506,0.38021 1.0954,-0.67699 3.43424,0.87764 20.0707,13.34103 5.50616,4.125 16.45288,12.225 24.32604,18 44.96046,32.9787 43.1227,31.27514 43.61508,40.42986 0.50735,9.43311 -4.03644,15.49742 -14.1335,18.86311 -0.65645,0.21881 0.0371,1.88117 1.68762,4.04514 1.54112,2.02051 2.48259,4.19054 2.09215,4.82228 -0.42447,0.68682 -0.27011,0.87683 0.38395,0.4726 1.16255,-0.7185 12.35082,14.06798 20.34748,26.89136 6.12719,9.82549 7.73306,17.5492 5.47849,26.34965 -2.21964,8.6641 -4.61579,12.86582 -11.2805,19.78067 -13.26973,13.76779 -45.08358,22.88841 -67.46031,19.34001 z m -18.5249,-10.53781 c -0.32569,-0.84872 -0.80663,-1.32866 -1.06875,-1.06653 -0.26213,0.26213 -0.17998,0.95654 0.18255,1.54313 0.98605,1.59546 1.56238,1.28551 0.8862,-0.4766 z M 666,727 c 0,-0.55 -0.45,-1 -1,-1 -0.55,0 -1,0.45 -1,1 0,0.55 0.45,1 1,1 0.55,0 1,-0.45 1,-1 z m 89,-4.37756 c 0,-0.20765 -0.7875,-0.99515 -1.75,-1.75 -1.58606,-1.24387 -1.62143,-1.2085 -0.37756,0.37756 1.30637,1.66575 2.12756,2.19548 2.12756,1.37244 z M 717.93031,712.51806 C 731.4804,709.00688 738,704.57562 738,698.87705 c 0,-2.29659 -1.48194,-5.23501 -5.1923,-10.29545 -14.30995,-19.51683 -33.62703,-46.49052 -35.59216,-49.69963 -2.89033,-4.71999 -2.8139,-8.37452 0.23901,-11.42742 2.14154,-2.14155 3.35297,-2.45455 9.5,-2.45455 6.45307,0 8.62647,-0.90484 6.02914,-2.51008 -0.55897,-0.34546 -0.71444,-1.11655 -0.34549,-1.71353 0.41013,-0.66361 0.20311,-0.79635 -0.53275,-0.34156 -0.72861,0.4503 -4.70107,-1.92345 -10.06637,-6.01519 -8.56042,-6.52843 -8.81278,-6.83538 -7.39661,-8.99674 1.12106,-1.71095 1.18164,-2.41357 0.25736,-2.98481 -0.70525,-0.43587 -0.94953,-0.32752 -0.58637,0.26008 0.34236,0.55395 0.0364,1.80876 -0.68002,2.78846 -1.19877,1.6394 -2.31004,1.04425 -13.95287,-7.4726 -6.97163,-5.09981 -12.36334,-9.7183 -12.01096,-10.28846 0.37794,-0.61152 0.14963,-0.73189 -0.55832,-0.29435 -1.79598,1.10998 -11.6407,-6.50001 -10.31367,-7.9725 0.38631,-0.42865 0.14886,-0.46122 -0.52766,-0.0724 -1.4037,0.80682 -17.9276,-11.07343 -17.49518,-12.57858 0.15112,-0.52604 -0.13277,-0.70456 -0.63088,-0.39672 -0.49811,0.30785 -2.59613,-0.7837 -4.66228,-2.42567 C 631.41547,562.34343 629.56187,561 629.3625,561 629.16312,561 629,585.47686 629,615.39301 c 0,48.23589 0.17567,54.46043 1.55194,54.98855 0.85356,0.32754 1.32435,0.22729 1.04619,-0.22279 -0.85221,-1.37891 10.05496,-11.49121 11.45871,-10.62364 0.73958,0.45708 1.00017,0.36614 0.63658,-0.22217 -0.9103,-1.47289 5.8718,-7.6997 7.37468,-6.77087 0.82974,0.51281 0.98727,0.35652 0.47542,-0.47168 -0.54257,-0.8779 -0.0779,-1.14131 1.59549,-0.90451 1.51831,0.21486 2.98702,1.58331 4.11497,3.8341 0.96469,1.925 7.15517,14.56186 13.75663,28.08191 6.60145,13.52005 13.07659,25.59084 14.3892,26.82396 5.49232,5.15978 18.62836,6.21459 32.5305,2.61219 z m -112.1998,-31.12088 c -0.33155,-0.33156 -0.19269,-1.68156 0.30858,-3 0.50128,-1.31845 0.68305,-2.39718 0.40393,-2.39718 -0.27911,0 -0.89013,1.0125 -1.35783,2.25 -0.83292,2.20383 -0.56883,3.75 0.64049,3.75 0.33421,0 0.33638,-0.27127 0.005,-0.60282 z M 719.03635,663.5438 c -0.66469,-0.8009 -0.87877,-2.0384 -0.47574,-2.75 0.57672,-1.01824 0.455,-1.0366 -0.57152,-0.0862 -1.06101,0.98234 -1.06554,1.49534 -0.0243,2.75 0.70403,0.84831 1.50506,1.54238 1.78006,1.54238 0.275,0 -0.0438,-0.65529 -0.70854,-1.4562 z m 27.09121,-1.2938 c 1.24387,-1.58606 1.2085,-1.62143 -0.37756,-0.37756 -0.9625,0.75485 -1.75,1.54235 -1.75,1.75 0,0.82304 0.82119,0.29331 2.12756,-1.37244 z M 703.5,631 c -0.33992,-0.55 -1.15398,-0.99311 -1.80902,-0.98469 -0.71561,0.009 -0.59227,0.40223 0.30902,0.98469 1.92112,1.24153 2.2673,1.24153 1.5,0 z m 0.5,-20.94098 c 0,-0.51754 -0.375,-1.17275 -0.83333,-1.45601 -0.45834,-0.28327 -0.83334,0.14017 -0.83334,0.94098 0,0.8008 0.375,1.45601 0.83334,1.45601 C 703.625,611 704,610.57656 704,610.05902 Z m 25.41429,-9.04473 c -0.64762,-0.64762 -0.98572,-0.30953 -0.98572,0.98571 0,1.29524 0.3381,1.63333 0.98572,0.98571 0.64761,-0.64761 0.64761,-1.32381 0,-1.97142 z m -58.0173,-14.84762 c 0.28327,-0.45834 -0.12038,-0.83334 -0.89699,-0.83334 -0.77661,0 -1.18026,0.375 -0.89699,0.83334 C 669.88627,586.625 670.28992,587 670.5,587 c 0.21008,0 0.61373,-0.375 0.89699,-0.83333 z M 639,561.42963 c 0,-0.275 -0.9,-0.0183 -2,0.57037 -1.1,0.5887 -2,1.29537 -2,1.57037 0,0.275 0.9,0.0183 2,-0.57037 1.1,-0.5887 2,-1.29537 2,-1.57037 z m 32.39699,-3.26296 c 0.28327,-0.45834 -0.12038,-0.83334 -0.89699,-0.83334 -0.77661,0 -1.18026,0.375 -0.89699,0.83334 C 669.88627,558.625 670.28992,559 670.5,559 c 0.21008,0 0.61373,-0.375 0.89699,-0.83333 z M 667,557.62244 c 0,-0.20765 -0.7875,-0.99515 -1.75,-1.75 -1.58606,-1.24387 -1.62143,-1.2085 -0.37756,0.37756 1.30637,1.66575 2.12756,2.19548 2.12756,1.37244 z m 1,-2 c 0,-0.20765 -0.7875,-0.99515 -1.75,-1.75 -1.58606,-1.24387 -1.62143,-1.2085 -0.37756,0.37756 1.30637,1.66575 2.12756,2.19548 2.12756,1.37244 z M 505.5,313.35609 c -1.65,-0.8338 -3.9,-2.71752 -5,-4.18605 -1.89768,-2.53345 -2.01568,-4.48614 -2.30641,-38.17004 -0.31134,-36.0697 0.007,-42.61226 2.01144,-41.37328 0.68636,0.42419 0.81933,0.22172 0.35152,-0.53522 -2.09432,-3.38869 8.54177,-8.14522 13.76928,-6.15772 1.53698,0.58436 2.51907,1.50816 2.18241,2.05289 -0.33777,0.54651 0.0172,0.74894 0.7919,0.45165 0.8209,-0.31501 2.19227,0.62422 3.30194,2.26145 1.78147,2.62842 1.89792,5.13179 1.89792,40.80023 0,29.09427 -0.30079,38.52655 -1.28344,40.24673 -1.4209,2.48738 -8.13262,6.28915 -10.92672,6.18932 -0.98441,-0.0352 -3.13984,-0.74616 -4.78984,-1.57996 z m -48.71444,-11.44527 c -1.50106,-1.12027 -5.0284,-6.58192 -7.89103,-12.21832 -2.84713,-5.60587 -7.36313,-14.36162 -10.03556,-19.4572 -5.27765,-10.06301 -5.58413,-11.56399 -3.41915,-16.74552 3.00496,-7.19187 12.04643,-9.56196 18.84741,-4.94057 3.13349,2.12926 5.25514,5.54756 12.879,20.75 9.38045,18.7052 11.13617,24.80962 8.02452,27.90035 -1.07681,1.06958 -1.19321,0.94539 -0.65566,-0.69956 0.49352,-1.51021 0.40824,-1.65487 -0.34824,-0.59068 -0.55099,0.77512 -0.77735,1.99424 -0.50301,2.70916 0.77153,2.01059 -5.64274,5.37782 -10.18384,5.3461 -2.42059,-0.0169 -5.0718,-0.82784 -6.71444,-2.05376 z m 6.6568,0.18244 c 0.30822,-0.49871 -0.34022,-0.67122 -1.44098,-0.38337 -2.33499,0.61061 -2.63015,1.29011 -0.5604,1.29011 0.79254,0 1.69316,-0.40803 2.00138,-0.90674 z M 463,298.60699 c 0,-0.21616 -0.69837,-0.661 -1.55194,-0.98855 -0.88992,-0.34149 -1.29132,-0.17385 -0.94098,0.39301 0.58726,0.95021 2.49292,1.40545 2.49292,0.59554 z m 89.18576,4.33808 c -1.27284,-0.51048 -2.02689,-1.39311 -1.67567,-1.96139 0.35121,-0.56828 0.0576,-0.90958 -0.65253,-0.75846 -2.06695,0.4399 -5.02439,-6.24976 -4.45262,-10.07172 0.27535,-1.84058 4.67295,-11.69615 9.77244,-21.90128 10.15075,-20.31375 11.83503,-22.24158 19.43776,-22.24848 4.65741,-0.004 8.57003,2.51987 10.90484,7.0349 2.63266,5.09101 2.62997,5.09911 -8.79757,26.46136 -0.88266,1.65 -3.52612,6.97944 -5.87437,11.8432 -2.34825,4.86376 -5.36039,9.70126 -6.69365,10.75 -2.58898,2.03649 -8.04642,2.42492 -11.96863,0.85187 z"
         id="path26" />
    </g>
  </g>
</svg>
