<svg width="635" height="64" viewBox="0 0 635 64" fill="none" xmlns="http://www.w3.org/2000/svg">
<rect x="0.5" y="0.5" width="634" height="63" rx="31.5" fill="white"/>
<rect x="0.5" y="0.5" width="634" height="63" rx="31.5" stroke="#696060"/>
<path d="M30.392 28.0909V29.5114H24.5114V28.0909H30.392ZM26.2727 39V26.5852C26.2727 25.9602 26.4195 25.4394 26.7131 25.0227C27.0066 24.6061 27.3878 24.2936 27.8565 24.0852C28.3253 23.8769 28.8201 23.7727 29.3409 23.7727C29.7528 23.7727 30.089 23.8059 30.3494 23.8722C30.6098 23.9384 30.804 24 30.9318 24.0568L30.4489 25.5057C30.3636 25.4773 30.2453 25.4418 30.0938 25.3991C29.947 25.3565 29.7528 25.3352 29.5114 25.3352C28.9574 25.3352 28.5573 25.4749 28.3111 25.7543C28.0696 26.0336 27.9489 26.4432 27.9489 26.983V39H26.2727ZM32.7411 39V28.0909H34.4173V39H32.7411ZM33.5934 26.2727C33.2667 26.2727 32.985 26.1615 32.7482 25.9389C32.5162 25.7164 32.4002 25.4489 32.4002 25.1364C32.4002 24.8239 32.5162 24.5563 32.7482 24.3338C32.985 24.1113 33.2667 24 33.5934 24C33.9201 24 34.1995 24.1113 34.4315 24.3338C34.6682 24.5563 34.7866 24.8239 34.7866 25.1364C34.7866 25.4489 34.6682 25.7164 34.4315 25.9389C34.1995 26.1615 33.9201 26.2727 33.5934 26.2727ZM39.1634 32.4375V39H37.4872V28.0909H39.1065V29.7955H39.2486C39.5043 29.2415 39.8925 28.7964 40.4134 28.4602C40.9342 28.1193 41.6065 27.9489 42.4304 27.9489C43.169 27.9489 43.8153 28.1004 44.3693 28.4034C44.9233 28.7017 45.3542 29.1562 45.6619 29.767C45.9697 30.3731 46.1236 31.1402 46.1236 32.0682V39H44.4474V32.1818C44.4474 31.3248 44.2249 30.6572 43.7798 30.179C43.3348 29.696 42.724 29.4545 41.9474 29.4545C41.4124 29.4545 40.9342 29.5705 40.5128 29.8026C40.0961 30.0346 39.767 30.3731 39.5256 30.8182C39.2841 31.2633 39.1634 31.803 39.1634 32.4375ZM53.3058 39.2273C52.3967 39.2273 51.5941 38.9976 50.8981 38.5384C50.2021 38.0743 49.6576 37.4209 49.2646 36.5781C48.8716 35.7306 48.6751 34.7292 48.6751 33.5739C48.6751 32.428 48.8716 31.4337 49.2646 30.5909C49.6576 29.7481 50.2044 29.0971 50.9052 28.6378C51.6059 28.1785 52.4156 27.9489 53.3342 27.9489C54.0444 27.9489 54.6055 28.0672 55.0174 28.304C55.4341 28.536 55.7513 28.8011 55.9691 29.0994C56.1916 29.393 56.3645 29.6345 56.4876 29.8239H56.6296V24.4545H58.3058V39H56.6864V37.3239H56.4876C56.3645 37.5227 56.1893 37.7737 55.962 38.0767C55.7347 38.375 55.4104 38.6425 54.989 38.8793C54.5676 39.1113 54.0065 39.2273 53.3058 39.2273ZM53.533 37.7216C54.2054 37.7216 54.7736 37.5464 55.2376 37.196C55.7016 36.8409 56.0543 36.3509 56.2958 35.7259C56.5373 35.0961 56.658 34.3693 56.658 33.5455C56.658 32.7311 56.5397 32.0185 56.3029 31.4077C56.0662 30.7921 55.7158 30.3139 55.2518 29.973C54.7878 29.6274 54.2148 29.4545 53.533 29.4545C52.8228 29.4545 52.2309 29.6368 51.7575 30.0014C51.2887 30.3613 50.936 30.8513 50.6992 31.4716C50.4672 32.0871 50.3512 32.7784 50.3512 33.5455C50.3512 34.322 50.4696 35.0275 50.7063 35.6619C50.9478 36.2917 51.3029 36.7936 51.7717 37.1676C52.2451 37.5369 52.8323 37.7216 53.533 37.7216ZM71.9776 28.0909V29.5114H66.3242V28.0909H71.9776ZM67.9719 25.4773H69.6481V35.875C69.6481 36.3485 69.7167 36.7036 69.854 36.9403C69.9961 37.1723 70.176 37.3286 70.3938 37.4091C70.6164 37.4848 70.8507 37.5227 71.0969 37.5227C71.2816 37.5227 71.4331 37.5133 71.5515 37.4943C71.6699 37.4706 71.7646 37.4517 71.8356 37.4375L72.1765 38.9432C72.0629 38.9858 71.9042 39.0284 71.7006 39.071C71.497 39.1184 71.239 39.142 70.9265 39.142C70.453 39.142 69.989 39.0402 69.5344 38.8366C69.0846 38.633 68.7106 38.3229 68.4123 37.9062C68.1187 37.4896 67.9719 36.964 67.9719 36.3295V25.4773ZM76.4094 32.4375V39H74.7333V24.4545H76.4094V29.7955H76.5515C76.8072 29.232 77.1907 28.7846 77.7021 28.4531C78.2182 28.117 78.9047 27.9489 79.7617 27.9489C80.5051 27.9489 81.1561 28.098 81.7148 28.3963C82.2736 28.6899 82.7068 29.142 83.0146 29.7528C83.3271 30.3589 83.4833 31.1307 83.4833 32.0682V39H81.8072V32.1818C81.8072 31.3153 81.5823 30.6454 81.1325 30.1719C80.6874 29.6937 80.0695 29.4545 79.2788 29.4545C78.7295 29.4545 78.2371 29.5705 77.8015 29.8026C77.3706 30.0346 77.0297 30.3731 76.7788 30.8182C76.5326 31.2633 76.4094 31.803 76.4094 32.4375ZM91.1236 39.2273C90.0724 39.2273 89.1657 38.9953 88.4034 38.5312C87.6458 38.0625 87.0611 37.4091 86.6491 36.571C86.242 35.7282 86.0384 34.7481 86.0384 33.6307C86.0384 32.5133 86.242 31.5284 86.6491 30.6761C87.0611 29.8191 87.634 29.1515 88.3679 28.6733C89.1065 28.1903 89.9683 27.9489 90.9531 27.9489C91.5213 27.9489 92.0824 28.0436 92.6364 28.233C93.1903 28.4223 93.6946 28.7301 94.1491 29.1562C94.6037 29.5777 94.9659 30.1364 95.2358 30.8324C95.5057 31.5284 95.6406 32.3854 95.6406 33.4034V34.1136H87.2315V32.6648H93.9361C93.9361 32.0492 93.813 31.5 93.5668 31.017C93.3253 30.5341 92.9796 30.1529 92.5298 29.8736C92.0848 29.5942 91.5592 29.4545 90.9531 29.4545C90.2855 29.4545 89.7079 29.6203 89.2202 29.9517C88.7372 30.2784 88.3655 30.7045 88.1051 31.2301C87.8447 31.7557 87.7145 32.3191 87.7145 32.9205V33.8864C87.7145 34.7102 87.8565 35.4086 88.1406 35.9815C88.4295 36.5497 88.8295 36.983 89.3409 37.2812C89.8523 37.5748 90.4465 37.7216 91.1236 37.7216C91.5639 37.7216 91.9616 37.66 92.3168 37.5369C92.6766 37.4091 92.9867 37.2197 93.2472 36.9688C93.5076 36.7131 93.7088 36.3958 93.8509 36.017L95.4702 36.4716C95.2997 37.0208 95.0133 37.5038 94.6108 37.9205C94.2083 38.3324 93.7112 38.6544 93.1193 38.8864C92.5275 39.1136 91.8622 39.2273 91.1236 39.2273ZM104.043 39V24.4545H105.719V29.8239H105.861C105.984 29.6345 106.154 29.393 106.372 29.0994C106.595 28.8011 106.912 28.536 107.324 28.304C107.741 28.0672 108.304 27.9489 109.014 27.9489C109.933 27.9489 110.742 28.1785 111.443 28.6378C112.144 29.0971 112.691 29.7481 113.084 30.5909C113.477 31.4337 113.673 32.428 113.673 33.5739C113.673 34.7292 113.477 35.7306 113.084 36.5781C112.691 37.4209 112.146 38.0743 111.45 38.5384C110.754 38.9976 109.952 39.2273 109.043 39.2273C108.342 39.2273 107.781 39.1113 107.359 38.8793C106.938 38.6425 106.614 38.375 106.386 38.0767C106.159 37.7737 105.984 37.5227 105.861 37.3239H105.662V39H104.043ZM105.69 33.5455C105.69 34.3693 105.811 35.0961 106.053 35.7259C106.294 36.3509 106.647 36.8409 107.111 37.196C107.575 37.5464 108.143 37.7216 108.815 37.7216C109.516 37.7216 110.101 37.5369 110.57 37.1676C111.043 36.7936 111.398 36.2917 111.635 35.6619C111.876 35.0275 111.997 34.322 111.997 33.5455C111.997 32.7784 111.879 32.0871 111.642 31.4716C111.41 30.8513 111.057 30.3613 110.584 30.0014C110.115 29.6368 109.526 29.4545 108.815 29.4545C108.134 29.4545 107.561 29.6274 107.097 29.973C106.633 30.3139 106.282 30.7921 106.045 31.4077C105.809 32.0185 105.69 32.7311 105.69 33.5455ZM120.669 39.2273C119.684 39.2273 118.82 38.9929 118.077 38.5241C117.338 38.0554 116.76 37.3996 116.344 36.5568C115.932 35.714 115.726 34.7292 115.726 33.6023C115.726 32.4659 115.932 31.474 116.344 30.6264C116.76 29.7789 117.338 29.1207 118.077 28.652C118.82 28.1832 119.684 27.9489 120.669 27.9489C121.654 27.9489 122.516 28.1832 123.254 28.652C123.998 29.1207 124.575 29.7789 124.987 30.6264C125.404 31.474 125.612 32.4659 125.612 33.6023C125.612 34.7292 125.404 35.714 124.987 36.5568C124.575 37.3996 123.998 38.0554 123.254 38.5241C122.516 38.9929 121.654 39.2273 120.669 39.2273ZM120.669 37.7216C121.417 37.7216 122.033 37.5298 122.516 37.1463C122.999 36.7628 123.356 36.2585 123.588 35.6335C123.82 35.0085 123.936 34.3314 123.936 33.6023C123.936 32.8731 123.82 32.1937 123.588 31.5639C123.356 30.9342 122.999 30.4252 122.516 30.0369C122.033 29.6487 121.417 29.4545 120.669 29.4545C119.921 29.4545 119.305 29.6487 118.822 30.0369C118.339 30.4252 117.982 30.9342 117.75 31.5639C117.518 32.1937 117.402 32.8731 117.402 33.6023C117.402 34.3314 117.518 35.0085 117.75 35.6335C117.982 36.2585 118.339 36.7628 118.822 37.1463C119.305 37.5298 119.921 37.7216 120.669 37.7216ZM132.603 39.2273C131.618 39.2273 130.754 38.9929 130.01 38.5241C129.272 38.0554 128.694 37.3996 128.277 36.5568C127.865 35.714 127.659 34.7292 127.659 33.6023C127.659 32.4659 127.865 31.474 128.277 30.6264C128.694 29.7789 129.272 29.1207 130.01 28.652C130.754 28.1832 131.618 27.9489 132.603 27.9489C133.587 27.9489 134.449 28.1832 135.188 28.652C135.931 29.1207 136.509 29.7789 136.921 30.6264C137.337 31.474 137.546 32.4659 137.546 33.6023C137.546 34.7292 137.337 35.714 136.921 36.5568C136.509 37.3996 135.931 38.0554 135.188 38.5241C134.449 38.9929 133.587 39.2273 132.603 39.2273ZM132.603 37.7216C133.351 37.7216 133.966 37.5298 134.449 37.1463C134.932 36.7628 135.29 36.2585 135.522 35.6335C135.754 35.0085 135.87 34.3314 135.87 33.6023C135.87 32.8731 135.754 32.1937 135.522 31.5639C135.29 30.9342 134.932 30.4252 134.449 30.0369C133.966 29.6487 133.351 29.4545 132.603 29.4545C131.855 29.4545 131.239 29.6487 130.756 30.0369C130.273 30.4252 129.916 30.9342 129.684 31.5639C129.452 32.1937 129.336 32.8731 129.336 33.6023C129.336 34.3314 129.452 35.0085 129.684 35.6335C129.916 36.2585 130.273 36.7628 130.756 37.1463C131.239 37.5298 131.855 37.7216 132.603 37.7216ZM141.667 35.0227L141.638 32.9489H141.979L146.752 28.0909H148.826L143.741 33.233H143.599L141.667 35.0227ZM140.104 39V24.4545H141.781V39H140.104ZM147.036 39L142.775 33.6023L143.968 32.4375L149.167 39H147.036ZM157.688 43.0909C157.404 43.0909 157.15 43.0672 156.928 43.0199C156.705 42.9773 156.551 42.9347 156.466 42.892L156.892 41.4148C157.3 41.5189 157.659 41.5568 157.972 41.5284C158.284 41.5 158.561 41.3603 158.803 41.1094C159.049 40.8632 159.274 40.4631 159.478 39.9091L159.79 39.0568L155.756 28.0909H157.574L160.586 36.7841H160.699L163.711 28.0909H165.529L160.898 40.5909C160.69 41.1544 160.432 41.6207 160.124 41.9901C159.816 42.3641 159.459 42.6411 159.051 42.821C158.649 43.0009 158.194 43.0909 157.688 43.0909ZM171.782 39.2273C170.797 39.2273 169.933 38.9929 169.19 38.5241C168.451 38.0554 167.874 37.3996 167.457 36.5568C167.045 35.714 166.839 34.7292 166.839 33.6023C166.839 32.4659 167.045 31.474 167.457 30.6264C167.874 29.7789 168.451 29.1207 169.19 28.652C169.933 28.1832 170.797 27.9489 171.782 27.9489C172.767 27.9489 173.629 28.1832 174.368 28.652C175.111 29.1207 175.689 29.7789 176.1 30.6264C176.517 31.474 176.725 32.4659 176.725 33.6023C176.725 34.7292 176.517 35.714 176.1 36.5568C175.689 37.3996 175.111 38.0554 174.368 38.5241C173.629 38.9929 172.767 39.2273 171.782 39.2273ZM171.782 37.7216C172.53 37.7216 173.146 37.5298 173.629 37.1463C174.112 36.7628 174.469 36.2585 174.701 35.6335C174.933 35.0085 175.049 34.3314 175.049 33.6023C175.049 32.8731 174.933 32.1937 174.701 31.5639C174.469 30.9342 174.112 30.4252 173.629 30.0369C173.146 29.6487 172.53 29.4545 171.782 29.4545C171.034 29.4545 170.419 29.6487 169.936 30.0369C169.453 30.4252 169.095 30.9342 168.863 31.5639C168.631 32.1937 168.515 32.8731 168.515 33.6023C168.515 34.3314 168.631 35.0085 168.863 35.6335C169.095 36.2585 169.453 36.7628 169.936 37.1463C170.419 37.5298 171.034 37.7216 171.782 37.7216ZM186.159 34.5398V28.0909H187.835V39H186.159V37.1534H186.045C185.79 37.7074 185.392 38.1785 184.852 38.5668C184.313 38.9503 183.631 39.142 182.807 39.142C182.125 39.142 181.519 38.9929 180.989 38.6946C180.458 38.3916 180.042 37.937 179.739 37.331C179.436 36.7202 179.284 35.9508 179.284 35.0227V28.0909H180.96V34.9091C180.96 35.7045 181.183 36.339 181.628 36.8125C182.078 37.286 182.651 37.5227 183.347 37.5227C183.763 37.5227 184.187 37.4162 184.618 37.2031C185.054 36.9901 185.418 36.6634 185.712 36.223C186.01 35.7827 186.159 35.2216 186.159 34.5398ZM198.206 24.4545V39H196.53V24.4545H198.206ZM201.276 39V28.0909H202.952V39H201.276ZM202.129 26.2727C201.802 26.2727 201.52 26.1615 201.283 25.9389C201.051 25.7164 200.935 25.4489 200.935 25.1364C200.935 24.8239 201.051 24.5563 201.283 24.3338C201.52 24.1113 201.802 24 202.129 24C202.455 24 202.735 24.1113 202.967 24.3338C203.203 24.5563 203.322 24.8239 203.322 25.1364C203.322 25.4489 203.203 25.7164 202.967 25.9389C202.735 26.1615 202.455 26.2727 202.129 26.2727ZM207.585 35.0227L207.556 32.9489H207.897L212.67 28.0909H214.744L209.659 33.233H209.517L207.585 35.0227ZM206.022 39V24.4545H207.699V39H206.022ZM212.954 39L208.693 33.6023L209.886 32.4375L215.085 39H212.954ZM221.026 39.2273C219.975 39.2273 219.068 38.9953 218.306 38.5312C217.548 38.0625 216.963 37.4091 216.551 36.571C216.144 35.7282 215.941 34.7481 215.941 33.6307C215.941 32.5133 216.144 31.5284 216.551 30.6761C216.963 29.8191 217.536 29.1515 218.27 28.6733C219.009 28.1903 219.871 27.9489 220.855 27.9489C221.424 27.9489 221.985 28.0436 222.539 28.233C223.093 28.4223 223.597 28.7301 224.051 29.1562C224.506 29.5777 224.868 30.1364 225.138 30.8324C225.408 31.5284 225.543 32.3854 225.543 33.4034V34.1136H217.134V32.6648H223.838C223.838 32.0492 223.715 31.5 223.469 31.017C223.228 30.5341 222.882 30.1529 222.432 29.8736C221.987 29.5942 221.462 29.4545 220.855 29.4545C220.188 29.4545 219.61 29.6203 219.123 29.9517C218.64 30.2784 218.268 30.7045 218.007 31.2301C217.747 31.7557 217.617 32.3191 217.617 32.9205V33.8864C217.617 34.7102 217.759 35.4086 218.043 35.9815C218.332 36.5497 218.732 36.983 219.243 37.2812C219.755 37.5748 220.349 37.7216 221.026 37.7216C221.466 37.7216 221.864 37.66 222.219 37.5369C222.579 37.4091 222.889 37.2197 223.15 36.9688C223.41 36.7131 223.611 36.3958 223.753 36.017L225.373 36.4716C225.202 37.0208 224.916 37.5038 224.513 37.9205C224.111 38.3324 223.614 38.6544 223.022 38.8864C222.43 39.1136 221.765 39.2273 221.026 39.2273Z" fill="#777777"/>
<circle cx="601" cy="32" r="26" fill="#7474FD"/>
<path fill-rule="evenodd" clip-rule="evenodd" d="M607.299 36.5305C608.839 34.605 609.76 32.1626 609.76 29.5051C609.76 23.2891 604.721 18.25 598.505 18.25C592.289 18.25 587.25 23.2891 587.25 29.5051C587.25 35.7211 592.289 40.7603 598.505 40.7603C601.163 40.7603 603.605 39.8393 605.531 38.299L612.615 45.3838C613.104 45.8721 613.895 45.8721 614.384 45.3838C614.872 44.8954 614.872 44.1035 614.384 43.6151L607.299 36.5305ZM598.505 38.2716C593.663 38.2716 589.739 34.3468 589.739 29.5051C589.739 24.6635 593.663 20.7386 598.505 20.7386C603.347 20.7386 607.272 24.6635 607.272 29.5051C607.272 34.3468 603.347 38.2716 598.505 38.2716Z" fill="white"/>
</svg>
