<svg width="37" height="37" viewBox="0 0 37 37" fill="none" xmlns="http://www.w3.org/2000/svg">
<g clip-path="url(#clip0_1_136)">
<path d="M18.5 10.6515C16.804 8.49288 14.1896 6.3343 7.71017 6.17589C7.28458 6.1655 6.9375 6.51119 6.9375 6.93691C6.9375 10.095 6.9375 22.051 6.9375 25.587C6.9375 26.0126 7.28461 26.347 7.71009 26.3609C14.1896 26.5727 16.804 29.4455 18.5 31.6041M18.5 10.6515C20.196 8.49288 22.8103 6.3343 29.2898 6.17589C29.7155 6.1655 30.0625 6.50342 30.0625 6.92914C30.0625 10.4593 30.0625 22.0556 30.0625 25.5859C30.0625 26.0116 29.7155 26.347 29.29 26.3609C22.8105 26.5727 20.196 29.4455 18.5 31.6041M18.5 10.6515V31.6041" stroke="#7474FD" stroke-width="2.5" stroke-linejoin="round"/>
<path d="M29.6544 9.25H33.1458C33.5715 9.25 33.9167 9.59512 33.9167 10.0208V30.1226C33.9167 30.7464 33.1818 31.1608 32.6116 30.9075C31.3859 30.3628 29.3402 29.6974 26.6617 29.6974C22.1274 29.6974 18.5 32.375 18.5 32.375C18.5 32.375 14.8725 29.6974 10.3382 29.6974C7.65969 29.6974 5.61407 30.3628 4.3883 30.9075C3.81821 31.1608 3.08333 30.7464 3.08333 30.1226V10.0208C3.08333 9.59512 3.42845 9.25 3.85416 9.25H7.34559" stroke="#7474FD" stroke-width="2.5" stroke-linejoin="round"/>
</g>
<defs>
<clipPath id="clip0_1_136">
<rect width="37" height="37" fill="white"/>
</clipPath>
</defs>
</svg>
