<svg width="42" height="42" viewBox="0 0 42 42" fill="none" xmlns="http://www.w3.org/2000/svg">
<path d="M12.25 5.25V10.5M29.75 5.25V10.5M12.425 35C13.2358 31.0061 16.7668 28 21 28C25.2332 28 28.7642 31.0061 29.575 35M10.85 36.75H31.15C33.1102 36.75 34.0904 36.75 34.839 36.3685C35.4975 36.033 36.033 35.4975 36.3685 34.839C36.75 34.0904 36.75 33.1102 36.75 31.15V14.35C36.75 12.3898 36.75 11.4097 36.3685 10.661C36.033 10.0025 35.4975 9.46703 34.839 9.13148C34.0904 8.75 33.1102 8.75 31.15 8.75H10.85C8.88982 8.75 7.90972 8.75 7.16104 9.13148C6.50246 9.46703 5.96703 10.0025 5.63148 10.661C5.25 11.4097 5.25 12.3898 5.25 14.35V31.15C5.25 33.1102 5.25 34.0904 5.63148 34.839C5.96703 35.4975 6.50246 36.033 7.16104 36.3685C7.90972 36.75 8.88981 36.75 10.85 36.75ZM24.5 19.25C24.5 21.183 22.933 22.75 21 22.75C19.067 22.75 17.5 21.183 17.5 19.25C17.5 17.317 19.067 15.75 21 15.75C22.933 15.75 24.5 17.317 24.5 19.25Z" stroke="#444444" stroke-width="3" stroke-linecap="round" stroke-linejoin="round"/>
</svg>
