<svg width="30" height="28" viewBox="0 0 30 28" fill="none" xmlns="http://www.w3.org/2000/svg">
<path d="M15.125 20.1666C17.6794 20.1666 19.75 18.096 19.75 15.5416C19.75 12.9872 17.6794 10.9166 15.125 10.9166C12.5706 10.9166 10.5 12.9872 10.5 15.5416C10.5 18.096 12.5706 20.1666 15.125 20.1666Z" stroke="#5C5C5C" stroke-width="2" stroke-linecap="round" stroke-linejoin="round"/>
<path d="M1.25 21.4V9.68329C1.25 7.95647 1.25 7.09305 1.58607 6.43349C1.88167 5.85331 2.35336 5.38163 2.93353 5.08603C3.59309 4.74996 4.45651 4.74996 6.18333 4.74996H7.80924C7.99877 4.74996 8.09354 4.74996 8.18096 4.73994C8.63714 4.68769 9.04629 4.43483 9.29702 4.05018C9.34508 3.97646 9.38747 3.89168 9.47222 3.72218C9.64174 3.38315 9.7265 3.21363 9.82262 3.06618C10.3241 2.29689 11.1424 1.79116 12.0548 1.68665C12.2296 1.66663 12.4191 1.66663 12.7982 1.66663H17.4518C17.8309 1.66663 18.0204 1.66663 18.1952 1.68665C19.1076 1.79116 19.9259 2.29689 20.4274 3.06618C20.5235 3.21361 20.6082 3.38319 20.7778 3.72218C20.8625 3.8917 20.9049 3.97646 20.953 4.05018C21.2038 4.43483 21.6128 4.68769 22.069 4.73994C22.1565 4.74996 22.2512 4.74996 22.4408 4.74996H24.0667C25.7935 4.74996 26.657 4.74996 27.3165 5.08603C27.8966 5.38163 28.3684 5.85331 28.6639 6.43349C29 7.09305 29 7.95647 29 9.68329V21.4C29 23.1268 29 23.9903 28.6639 24.6498C28.3684 25.2299 27.8966 25.7017 27.3165 25.9972C26.657 26.3333 25.7935 26.3333 24.0667 26.3333H6.18333C4.45651 26.3333 3.59309 26.3333 2.93353 25.9972C2.35336 25.7017 1.88167 25.2299 1.58607 24.6498C1.25 23.9903 1.25 23.1268 1.25 21.4Z" stroke="#5C5C5C" stroke-width="2" stroke-linecap="round" stroke-linejoin="round"/>
</svg>
