<svg width="25" height="27" viewBox="0 0 25 27" fill="none" xmlns="http://www.w3.org/2000/svg">
<path id="Lock" d="M5.625 11.247C6.2732 11.2086 7.07231 11.2086 8.1 11.2086H16.9C17.9277 11.2086 18.7268 11.2086 19.375 11.247M5.625 11.247C4.81606 11.2948 4.24215 11.4026 3.75229 11.6446C2.97612 12.028 2.34508 12.6399 1.9496 13.3926C1.5 14.2483 1.5 15.3683 1.5 17.6086V19.4752C1.5 21.7155 1.5 22.8355 1.9496 23.6912C2.34508 24.4439 2.97612 25.0558 3.75229 25.4392C4.63467 25.8752 5.78978 25.8752 8.1 25.8752H16.9C19.2103 25.8752 20.3653 25.8752 21.2477 25.4392C22.0239 25.0558 22.6549 24.4439 23.0504 23.6912C23.5 22.8355 23.5 21.7155 23.5 19.4752V17.6086C23.5 15.3683 23.5 14.2483 23.0504 13.3926C22.6549 12.6399 22.0239 12.028 21.2477 11.6446C20.7578 11.4026 20.1839 11.2948 19.375 11.247M5.625 11.247V8.54191C5.625 4.86002 8.70305 1.87524 12.5 1.87524C16.2969 1.87524 19.375 4.86002 19.375 8.54191V11.247" stroke="#5C5C5C" stroke-width="2" stroke-linecap="round" stroke-linejoin="round"/>
</svg>
