<svg width="23" height="33" viewBox="0 0 23 33" fill="none" xmlns="http://www.w3.org/2000/svg">
<path id="Phone" d="M11.5 26.542H11.5167M6.83333 31.542H16.1667C18.0335 31.542 18.967 31.542 19.68 31.1787C20.3072 30.8592 20.8172 30.3492 21.1367 29.722C21.5 29.009 21.5 28.0755 21.5 26.2087V6.87533C21.5 5.00849 21.5 4.07506 21.1367 3.36203C20.8172 2.73481 20.3072 2.22488 19.68 1.90531C18.967 1.54199 18.0335 1.54199 16.1667 1.54199H6.83333C4.9665 1.54199 4.03307 1.54199 3.32003 1.90531C2.69282 2.22488 2.18288 2.73481 1.86332 3.36203C1.5 4.07506 1.5 5.00848 1.5 6.87533V26.2087C1.5 28.0755 1.5 29.009 1.86332 29.722C2.18288 30.3492 2.69282 30.8592 3.32003 31.1787C4.03307 31.542 4.96648 31.542 6.83333 31.542Z" stroke="#5C5C5C" stroke-width="2" stroke-linecap="round" stroke-linejoin="round"/>
</svg>
